<?xml version="1.0" encoding="utf-8"?>
<!-- Generator: Adobe Illustrator 17.0.2, SVG Export Plug-In . SVG Version: 6.00 Build 0)  -->
<!DOCTYPE svg PUBLIC "-//W3C//DTD SVG 1.1//EN" "http://www.w3.org/Graphics/SVG/1.1/DTD/svg11.dtd">
<svg version="1.1" id="Layer_1" xmlns="http://www.w3.org/2000/svg" xmlns:xlink="http://www.w3.org/1999/xlink" x="0px" y="0px"
	 width="53.992px" height="59.992px" viewBox="-157.497 -139.496 53.992 59.992"
	 enable-background="new -157.497 -139.496 53.992 59.992" xml:space="preserve">
<path d="M-105.505-113.5h-3.999c-1.104,0-2-0.895-2-2c0-1.104,0.896-1.999,2-1.999h3.999c1.104,0,2,0.895,2,1.999
	C-103.505-114.395-104.4-113.5-105.505-113.5z M-113.361-126.812c-0.781,0.781-2.048,0.781-2.828,0c-0.781-0.78-0.781-2.047,0-2.827
	l2.828-2.828c0.78-0.781,2.047-0.781,2.828,0c0.78,0.78,0.78,2.047,0,2.828L-113.361-126.812z M-116.308-111.205L-116.308-111.205
	c1.749,2.086,2.805,4.77,2.805,7.705c0,5.221-3.342,9.652-7.999,11.301v-4.381c2.389-1.385,4-3.961,4-6.92c0-4.418-3.582-8-7.999-8
	c-1.601,0-3.084,0.482-4.334,1.291c-1.231-5.316-5.973-9.29-11.664-9.29c-6.627,0-11.999,5.372-11.999,11.999
	c0,3.549,1.551,6.729,4,8.926v4.914c-4.777-2.768-7.999-7.922-7.999-13.84c0-8.836,7.162-15.998,15.998-15.998
	c1.572,0,3.089,0.232,4.523,0.654c2.195-2.827,5.617-4.654,9.475-4.654c6.627,0,11.998,5.372,11.998,11.998
	C-115.504-113.985-115.796-112.539-116.308-111.205z M-127.502-123.498c-2.213,0-4.215,0.898-5.663,2.35
	c2.341,1.436,4.286,3.452,5.63,5.853c0.664-0.113,1.336-0.205,2.033-0.205c2.125,0,4.118,0.559,5.85,1.527l0,0
	c0.096-0.494,0.149-1.004,0.149-1.527C-119.503-119.917-123.084-123.498-127.502-123.498z M-127.502-131.498
	c-1.104,0-2-0.895-2-1.999v-3.999c0-1.105,0.896-2,2-2c1.104,0,2,0.895,2,2v3.999C-125.502-132.392-126.397-131.498-127.502-131.498
	z M-141.642-126.812l-2.828-2.827c-0.78-0.781-0.78-2.048,0-2.828c0.781-0.781,2.047-0.781,2.828,0l2.828,2.828
	c0.781,0.78,0.781,2.047,0,2.827C-139.595-126.031-140.861-126.031-141.642-126.812z M-143.5-103.5c1.104,0,2,0.895,2,2v3.998
	c0,1.105-0.896,2-2,2s-2-0.895-2-2v-3.998C-145.5-102.606-144.604-103.5-143.5-103.5z M-143.5-91.502c1.104,0,2,0.895,2,2v3.998
	c0,1.105-0.896,2-2,2s-2-0.895-2-2v-3.998C-145.5-90.608-144.604-91.502-143.5-91.502z M-135.501-99.502c1.104,0,2,0.896,2,2v4
	c0,1.104-0.896,2-2,2s-2-0.896-2-2v-4C-137.501-98.606-136.605-99.502-135.501-99.502z M-135.501-87.502c1.104,0,2,0.895,2,1.998v4
	c0,1.105-0.896,2-2,2s-2-0.895-2-2v-4C-137.501-86.608-136.605-87.502-135.501-87.502z M-127.502-103.5c1.104,0,2,0.895,2,2v3.998
	c0,1.105-0.896,2-2,2c-1.104,0-2-0.895-2-2v-3.998C-129.502-102.606-128.606-103.5-127.502-103.5z M-127.502-91.502
	c1.104,0,2,0.895,2,2v3.998c0,1.105-0.896,2-2,2c-1.104,0-2-0.895-2-2v-3.998C-129.502-90.608-128.606-91.502-127.502-91.502z"/>
</svg>
