<?xml version="1.0" encoding="utf-8"?>
<!-- Generator: Adobe Illustrator 17.0.2, SVG Export Plug-In . SVG Version: 6.00 Build 0)  -->
<!DOCTYPE svg PUBLIC "-//W3C//DTD SVG 1.1//EN" "http://www.w3.org/Graphics/SVG/1.1/DTD/svg11.dtd">
<svg version="1.1" id="Layer_1" xmlns="http://www.w3.org/2000/svg" xmlns:xlink="http://www.w3.org/1999/xlink" x="0px" y="0px"
	 width="53.993px" height="47.994px" viewBox="23.003 -153.023 53.993 47.994"
	 enable-background="new 23.003 -153.023 53.993 47.994" xml:space="preserve">
<path d="M74.997-127.027h-4c-1.104,0-2-0.895-2-2c0-1.104,0.896-1.998,2-1.998h4c1.104,0,2,0.895,2,1.998
	C76.997-127.922,76.1-127.027,74.997-127.027z M67.139-140.339c-0.781,0.781-2.047,0.781-2.828,0c-0.781-0.78-0.781-2.047,0-2.827
	l2.828-2.828c0.781-0.781,2.047-0.781,2.828,0c0.781,0.78,0.781,2.047,0,2.828L67.139-140.339z M64.193-124.732L64.193-124.732
	c1.749,2.086,2.806,4.77,2.806,7.705c0,6.625-5.372,11.998-11.999,11.998c-2.775,0-12.801,0-15.998,0
	c-8.835,0-15.998-7.162-15.998-15.998s7.163-15.998,15.998-15.998c1.572,0,3.09,0.232,4.523,0.654
	c2.195-2.827,5.618-4.654,9.475-4.654c6.627,0,11.999,5.373,11.999,11.998C64.997-127.512,64.704-126.066,64.193-124.732z
	 M27.003-121.027c0,6.627,5.371,11.998,11.998,11.998c3.616,0,12.979,0,15.998,0c4.418,0,7.999-3.582,7.999-7.998
	c0-4.418-3.581-8-7.999-8c-1.6,0-3.083,0.482-4.333,1.291c-1.231-5.316-5.974-9.289-11.665-9.289
	C32.374-133.025,27.003-127.654,27.003-121.027z M52.999-137.025c-2.212,0-4.215,0.898-5.662,2.349
	c2.34,1.436,4.285,3.453,5.629,5.854c0.664-0.113,1.337-0.205,2.033-0.205c2.125,0,4.119,0.559,5.85,1.527l0,0
	c0.096-0.494,0.15-1.004,0.15-1.527C60.999-133.443,57.417-137.025,52.999-137.025z M52.999-145.025
	c-1.104,0-1.999-0.895-1.999-1.999v-3.999c0-1.105,0.896-2,1.999-2c1.105,0,2,0.895,2,2v3.999
	C54.999-145.919,54.104-145.025,52.999-145.025z M38.859-140.339l-2.827-2.827c-0.781-0.781-0.781-2.048,0-2.828
	c0.78-0.781,2.047-0.781,2.827,0l2.828,2.828c0.781,0.78,0.781,2.047,0,2.827C40.907-139.558,39.639-139.558,38.859-140.339z"/>
</svg>
