<?xml version="1.0" encoding="utf-8"?>
<!-- Generator: Adobe Illustrator 17.0.2, SVG Export Plug-In . SVG Version: 6.00 Build 0)  -->
<!DOCTYPE svg PUBLIC "-//W3C//DTD SVG 1.1//EN" "http://www.w3.org/Graphics/SVG/1.1/DTD/svg11.dtd">
<svg version="1.1" id="Layer_1" xmlns="http://www.w3.org/2000/svg" xmlns:xlink="http://www.w3.org/1999/xlink" x="0px" y="0px"
	 width="43.995px" height="39.995px" viewBox="-53.163 -115.79 43.995 39.995"
	 enable-background="new -53.163 -115.79 43.995 39.995" xml:space="preserve">
<path d="M-11.168-83.793h-39.995c-1.104,0-2-0.896-2-2c0-1.105,0.896-2,2-2h39.995c1.104,0,2,0.895,2,2
	C-9.168-84.69-10.063-83.793-11.168-83.793z M-11.168-91.793h-39.995c-1.104,0-2-0.895-2-2c0-1.104,0.896-2,2-2h39.995
	c1.104,0,2,0.896,2,2C-9.168-92.688-10.063-91.793-11.168-91.793z M-21.167-103.791c-1.601,0-3.083,0.48-4.333,1.291
	c-1.232-5.317-5.974-9.291-11.665-9.291c-6.626,0-11.998,5.373-11.998,12h-4c0-8.835,7.163-15.999,15.998-15.999
	c6.004,0,11.229,3.312,13.965,8.204c0.664-0.113,1.337-0.205,2.033-0.205c5.222,0,9.652,3.342,11.301,8h-4.381
	C-15.631-102.181-18.208-103.791-21.167-103.791z M-51.163-79.795h39.995c1.104,0,2,0.896,2,2c0,1.105-0.896,2-2,2h-39.995
	c-1.104,0-2-0.895-2-2C-53.163-78.899-52.268-79.795-51.163-79.795z"/>
</svg>
