<?xml version="1.0" encoding="utf-8"?>
<!-- Generator: Adobe Illustrator 17.0.2, SVG Export Plug-In . SVG Version: 6.00 Build 0)  -->
<!DOCTYPE svg PUBLIC "-//W3C//DTD SVG 1.1//EN" "http://www.w3.org/Graphics/SVG/1.1/DTD/svg11.dtd">
<svg version="1.1" id="Layer_1" xmlns="http://www.w3.org/2000/svg" xmlns:xlink="http://www.w3.org/1999/xlink" x="0px" y="0px"
	 width="43.995px" height="43.996px" viewBox="56.005 -157.357 43.995 43.996"
	 enable-background="new 56.005 -157.357 43.995 43.996" xml:space="preserve">
<path d="M92.001-126.059v-4.381c2.389-1.383,4-3.961,4-6.92c0-4.417-3.582-7.999-8-7.999c-1.6,0-3.082,0.48-4.333,1.291
	c-1.231-5.317-5.974-9.29-11.665-9.29c-6.626,0-11.998,5.372-11.998,11.998c0,3.55,1.551,6.728,4,8.925v4.916
	c-4.777-2.768-8-7.922-8-13.841c0-8.835,7.163-15.997,15.998-15.997c6.004,0,11.229,3.311,13.965,8.203
	c0.664-0.113,1.338-0.205,2.033-0.205c6.627,0,11.999,5.372,11.999,11.999C100-132.137,96.659-127.707,92.001-126.059z
	 M70.004-137.359c1.104,0,1.999,0.896,1.999,2v15.998c0,1.105-0.895,2-1.999,2s-2-0.895-2-2v-15.998
	C68.004-136.463,68.9-137.359,70.004-137.359z M78.003-133.359c1.104,0,2,0.895,2,2v15.998c0,1.104-0.896,2-2,2s-2-0.896-2-2
	v-15.998C76.003-132.465,76.899-133.359,78.003-133.359z M86.002-137.359c1.104,0,1.999,0.896,1.999,2v15.998
	c0,1.105-0.895,2-1.999,2s-2-0.895-2-2v-15.998C84.002-136.463,84.898-137.359,86.002-137.359z"/>
</svg>
