<?xml version="1.0" encoding="utf-8"?>
<!-- Generator: Adobe Illustrator 17.0.2, SVG Export Plug-In . SVG Version: 6.00 Build 0)  -->
<!DOCTYPE svg PUBLIC "-//W3C//DTD SVG 1.1//EN" "http://www.w3.org/Graphics/SVG/1.1/DTD/svg11.dtd">
<svg version="1.1" id="Layer_1" xmlns="http://www.w3.org/2000/svg" xmlns:xlink="http://www.w3.org/1999/xlink" x="0px" y="0px"
	 width="33.997px" height="23.997px" viewBox="168.502 -99.498 33.997 23.997"
	 enable-background="new 168.502 -99.498 33.997 23.997" xml:space="preserve">
<path d="M198.498-91.499c0-2.209-1.791-4-4-4s-4,1.791-4,4v3.999h8v4h-8v7.999H186.5V-83.5v-4v-3.999
	c0-4.418,3.581-7.999,7.999-7.999s8,3.581,8,7.999H198.498z M175.5-85.5c-3.865,0-6.998-3.134-6.998-6.999s3.133-6.999,6.998-6.999
	s7,3.134,7,6.999S179.366-85.5,175.5-85.5z M175.5-95.499c-1.656,0-2.999,1.344-2.999,3s1.343,3,2.999,3c1.657,0,3-1.344,3-3
	S177.158-95.499,175.5-95.499z"/>
</svg>
