<?xml version="1.0" encoding="utf-8"?>
<!-- Generator: Adobe Illustrator 17.0.2, SVG Export Plug-In . SVG Version: 6.00 Build 0)  -->
<!DOCTYPE svg PUBLIC "-//W3C//DTD SVG 1.1//EN" "http://www.w3.org/Graphics/SVG/1.1/DTD/svg11.dtd">
<svg version="1.1" id="Layer_1" xmlns="http://www.w3.org/2000/svg" xmlns:xlink="http://www.w3.org/1999/xlink" x="0px" y="0px"
	 width="47.994px" height="47.994px" viewBox="139.444 -15.699 47.994 47.994"
	 enable-background="new 139.444 -15.699 47.994 47.994" xml:space="preserve">
<path d="M185.438,10.297h-3.998c-1.105,0-2-0.895-2-1.999s0.895-2,2-2h3.998c1.105,0,2,0.896,2,2S186.544,10.297,185.438,10.297z
	 M177.583-3.014c-0.781,0.781-2.049,0.781-2.828,0c-0.781-0.781-0.781-2.047,0-2.828l2.828-2.828c0.779-0.781,2.047-0.781,2.828,0
	c0.779,0.781,0.779,2.047,0,2.828L177.583-3.014z M163.442,20.296c-6.627,0-12-5.372-12-11.998c0-6.627,5.372-11.999,12-11.999
	c6.627,0,11.998,5.372,11.998,11.999C175.44,14.924,170.069,20.296,163.442,20.296z M163.442,0.299c-4.418,0-8,3.581-8,7.999
	c0,4.417,3.583,7.999,8,7.999c4.417,0,7.998-3.582,7.998-7.999C171.44,3.88,167.86,0.299,163.442,0.299z M163.442-7.7
	c-1.105,0-2-0.896-2-2v-3.999c0-1.104,0.895-2,2-2c1.104,0,2,0.896,2,2V-9.7C165.442-8.596,164.545-7.7,163.442-7.7z M149.301-3.014
	l-2.828-2.828c-0.781-0.781-0.781-2.047,0-2.828c0.781-0.781,2.047-0.781,2.828,0l2.828,2.828c0.781,0.781,0.781,2.047,0,2.828
	C151.348-2.233,150.082-2.233,149.301-3.014z M147.443,8.298c0,1.104-0.896,1.999-2,1.999h-4c-1.104,0-1.999-0.895-1.999-1.999
	s0.896-2,1.999-2h4C146.548,6.298,147.443,7.194,147.443,8.298z M149.301,19.61c0.781-0.78,2.047-0.78,2.828,0
	c0.781,0.781,0.781,2.048,0,2.828l-2.828,2.828c-0.781,0.781-2.047,0.781-2.828,0c-0.781-0.78-0.781-2.047,0-2.828L149.301,19.61z
	 M163.442,24.296c1.104,0,2,0.895,2,1.999v4c0,1.104-0.896,2-2,2c-1.105,0-2-0.896-2-2v-4
	C161.442,25.191,162.337,24.296,163.442,24.296z M177.583,19.61l2.828,2.828c0.779,0.781,0.779,2.048,0,2.828
	c-0.781,0.781-2.049,0.781-2.828,0l-2.828-2.828c-0.781-0.78-0.781-2.047,0-2.828C175.534,18.829,176.801,18.829,177.583,19.61z"/>
</svg>
