<?xml version="1.0" standalone="no"?>
<!DOCTYPE svg PUBLIC "-//W3C//DTD SVG 1.1//EN" "http://www.w3.org/Graphics/SVG/1.1/DTD/svg11.dtd" >
<svg xmlns="http://www.w3.org/2000/svg">
<metadata></metadata>
<defs>
<font id="punchlabelregular" horiz-adv-x="1165" >
<font-face units-per-em="2048" ascent="1638" descent="-410" />
<missing-glyph horiz-adv-x="500" />
<glyph unicode="&#xd;" />
<glyph unicode=" " />
<glyph unicode="!" d="M-18 -410v2048h1204v-2048h-1204zM387 825q0 -92 14 -170q6 49 7 97q0 47 -2.5 94t-4.5 96q1 51 7 100q-20 -100 -21 -217zM412 221q0 -27 28.5 -59.5t55.5 -32.5l26 8q33 6 49.5 33t16.5 63l-4 31q-20 29 -38 45.5t-44 16.5l-19 -4q-29 -20 -50 -45t-21 -56zM436 764 l6 -215q0 -29 11.5 -52.5t38.5 -23.5q57 0 67 64l8 102q10 -8 15.5 -25.5t11.5 -31.5q8 33 8 75q0 47 -9 137.5t-9 102.5q0 33 4 61.5t16 55.5q0 63 -14.5 113.5t-61.5 50.5q-27 0 -56.5 -16.5t-29.5 -39.5q0 -90 -2 -180t-4 -178z" />
<glyph unicode="&#x22;" d="M-18 -410v2048h1200v-2048h-1200zM293 918q0 -55 19.5 -107.5t68.5 -52.5q12 0 22 10q23 4 38.5 68.5t15.5 152.5v31q0 16 -1 37.5t-7 54.5q-18 31 -58 31q-68 0 -83 -62.5t-15 -162.5zM616 965q0 -59 13.5 -113.5t44.5 -95.5q-12 78 -17.5 171t-5.5 195 q-18 -35 -26.5 -73.5t-8.5 -83.5zM682 1016q0 -31 2 -94.5t2 -98.5q16 -27 29.5 -46t32.5 -19q8 0 24 10q18 2 28.5 39t10.5 100q0 68 -2 100t-14 89q-29 39 -39.5 48t-26.5 9q-33 0 -40 -40t-7 -97z" />
<glyph unicode="#" d="M-18 -410v2048h1204v-2048h-1204zM250 530l4 -22q23 -27 74 -27h30.5t34.5 2l2 -16q0 -25 -10 -51q2 -25 4 -49q8 -33 31 -33l18 4q14 6 20.5 10t6.5 17l2 116l106 4l111 -2l2 -16q0 -25 -10 -51q2 -25 4 -49q8 -33 31 -33l18 4q14 6 20.5 10t6.5 17l2 116l39 -2 q29 -2 62.5 4t33.5 27q0 25 -18.5 31t-51.5 6l-14 2q20 8 31 12q-25 4 -35 4q-33 -2 -47 -2l-6 72l2 117l39 -2q29 -2 62.5 4t33.5 26q0 25 -18.5 31t-51.5 6l-14 2q20 8 31 12q-25 4 -35 5q-33 -2 -47 -2l-4 86q0 37 -25 38q-27 0 -30 -37.5t-7 -48.5q-8 20 -12 31 q-4 -20 -4 -33q2 -31 2 -45q-31 0 -56 13q-33 -2 -48 -5.5t-27 -15.5l-25 2q20 8 31 12q-25 4 -35 5q-33 -2 -47 -2l-4 86q0 37 -25 38q-27 0 -29.5 -37.5t-7.5 -48.5q-8 20 -12 31q-4 -20 -4 -33q2 -31 2 -45q-31 0 -55 13q-29 0 -55.5 -8.5t-26.5 -28.5l4 -23 q23 -27 74 -26h30.5t34.5 2l2 -17q0 -25 -10 -51l-2 -12l6 -43q-4 -20 -4 -31q2 -31 2 -45q-31 0 -55 12q-29 0 -55.5 -8t-26.5 -29zM465 635l2 117l88 4h39l86 -2l2 -17q0 -27 -12 -51l10 -55q-4 -20 -4 -31q2 -31 2 -45q-31 0 -55 12q-33 -2 -48.5 -5t-27.5 -15h-23l-6 2 q20 8 31 12q-16 4 -51 4h-31z" />
<glyph unicode="$" d="M-23 -410v2048h1205v-2048h-1205zM176 336q0 -102 92 -154.5t203 -52.5q33 -2 43 -104.5t49 -102.5q45 0 53.5 104.5t124 129t175 57.5t59.5 193q0 119 -31.5 167.5t-140.5 114.5l53 4q25 0 39 -8q-94 20 -186.5 28.5t-194.5 8.5l-76 -2q-25 -18 -55 -19q-55 0 -77.5 39 t-22.5 101q0 45 21.5 83t62.5 38l8 -9q0 -16 -14.5 -53t-14.5 -57l2 -13q53 29 122 44.5t134 15.5q133 0 223 -53l2 10q0 23 -17 58.5t-19 45.5q51 0 67.5 -71.5t46.5 -71.5q12 0 31.5 10t26.5 10q10 27 10 47q0 47 -22.5 80t-80.5 93q-57 18 -122.5 31.5t-118.5 13.5l2 67 q0 59 -7.5 94t-43.5 35q-39 0 -54 -82q-10 -94 -12 -114q-180 0 -259 -65.5t-79 -250.5q0 -31 31 -88t31 -72l-11 -8l-26 6q43 -78 118.5 -100t190.5 -22h70q129 0 180 -27t51 -84l-2 -21q-39 -41 -96.5 -57t-126.5 -16q-49 0 -126 5t-89 5l24 -14q-25 -12 -41 -13 q-29 0 -55.5 70t-69.5 70l-26 -4q-29 -29 -29 -70zM375 561l76 2q63 0 119.5 -4t107.5 -16h-64q-86 0 -132 3t-107 15zM844 506q8 2 18 -18.5t10 -30.5q0 -12 -6 -35t-4 -33q2 2 4 14q0 18 -11 54.5t-11 48.5z" />
<glyph unicode="%" d="M-23 -410v2048h1217v-2048h-1217zM154 772q0 -68 51 -90.5t131 -22.5q53 0 100 13.5t82 44.5q8 35 14.5 77t6.5 76q0 90 -33 168q-47 27 -117 32t-104 5q-57 0 -91 -29.5t-34 -121.5v-43.5t2 -40.5q0 -10 -4 -38t-4 -30zM215 909q0 94 94 95q20 0 51 -7.5t46 -15.5 q-8 -2 -27 -2q-10 0 -31.5 2t-32.5 2l-49 -6l2 -6q90 -10 181 -21q2 -8 3 -24.5t3 -30.5q2 -35 2 -55q0 -45 -10.5 -68.5t-45.5 -23.5q-70 8 -139 18h-20q10 -4 38.5 -7t41.5 -7l-25 -7q-35 0 -57 15q-12 74 -25 149zM285 184q0 -25 18.5 -41t42.5 -16l14 2q74 129 201 334 t199 327.5t133 251.5q-27 23 -57 21q-92 -111 -183.5 -270.5t-183.5 -321.5t-182 -266zM655 233q0 -68 51.5 -90t131.5 -22q53 0 100 13t82 44q8 35 14 77t6 77q0 90 -32 168q-47 27 -117 32t-105 5q-57 0 -90.5 -30t-33.5 -122v-43t2 -41q0 -10 -4.5 -37.5t-4.5 -30.5z M719 371q0 94 94 94q20 0 51 -7t45 -16q-8 -2 -26 -2q-10 0 -32 2t-32 2l-49 -6l2 -6l180 -20q2 -8 3 -24.5t3 -31.5q2 -35 3 -55q0 -45 -10.5 -68.5t-45.5 -23.5q-70 8 -139 18h-21q10 -4 39 -7t41 -7l-24 -6q-35 0 -58 14q-12 74 -24 150z" />
<glyph unicode="&#x26;" d="M-31 -410v2048h1217v-2048h-1217zM90 494q0 -168 98.5 -233.5t274.5 -65.5q88 0 160.5 12t240.5 45q12 20 28.5 32.5t37.5 12.5q29 0 79 -28.5t66 -32.5q14 4 19.5 19.5t7.5 35.5l2 12q0 37 -82 65.5t-82 100.5q0 25 8 76t8 76t-3 37t-15 28q-23 -4 -40 -6t-21 -14 q-10 -12 -11 -35q0 -16 8.5 -51t8.5 -45q0 -25 -25 -25q-47 0 -279.5 151.5t-270.5 185.5t-44 57.5t-6 39.5q0 82 74 82q27 0 26 -27q0 -16 -8 -51t-8 -45q0 -27 34 -56.5t60 -29.5q2 10 -34.5 52t-39.5 55q39 31 86.5 42t106.5 11q37 0 74 -2t73 -4h29q6 4 4 12 q-8 16 -14 33q6 14 8 16l12 2q45 0 54.5 -70.5t33.5 -89.5l13 -2q29 0 47 35l2 31q0 55 -19.5 106.5t-57.5 67.5t-141.5 29.5t-156.5 13.5q-98 0 -178 -25.5t-135 -89.5q-14 -43 -15 -98q0 -43 13.5 -82t42.5 -67q-6 -16 -34 -18.5t-52.5 -44.5t-46 -105.5t-21.5 -130.5z M176 508q0 59 20.5 106.5t67.5 67.5q31 0 31 -12q0 -6 -12.5 -29t-12.5 -27q23 14 45 11q43 0 116 -44t81 -49q-6 6 -75.5 70t-69.5 68q104 -68 244.5 -168.5t211.5 -100.5q29 0 27 -12l-6 -18l-23 -6q-35 0 -108.5 49t-83.5 53q23 -10 36 -23.5t13 -33.5q0 -35 -40 -55.5 t-79 -20.5q-27 0 -68.5 -5t-50.5 -5q-113 0 -223 41q-41 59 -41 143zM801 584q0 -6 7 -8.5t11 -4.5l15 9q0 8 -8.5 9t-14.5 1z" />
<glyph unicode="'" d="M-25 -410v2048h1211v-2048h-1211zM481 911q0 -53 19.5 -103t66.5 -50q8 0 25 10q31 6 39 68.5t8 121.5v33v49q-6 36 -8 52q-20 29 -38 45t-44 16l-21 -6q-25 -18 -36 -101t-11 -135z" />
<glyph unicode="(" d="M-16 -410v2048h1198v-2048h-1198zM324 651q0 -94 9 -234.5t25.5 -203.5t94 -140t135.5 -91q49 -18 103 -39t95 -21q60 0 60 70q-14 16 -134 61t-169 80t-73 171t-24 282q0 254 61.5 375.5t291.5 146.5q14 18 14 37q0 37 -24.5 52t-63.5 15q-51 0 -104.5 -21.5t-125 -64.5 t-121.5 -153.5t-50 -321.5z" />
<glyph unicode=")" d="M-18 -410v2048h1200v-2048h-1200zM377 25q0 -20 13 -39t34 -19q106 0 195 65t159 165q18 111 30.5 237.5t12.5 237.5q0 119 -15 234.5t-55 178t-131.5 124t-160.5 61.5q-31 0 -52.5 -13.5t-21.5 -42.5q0 -39 51 -47t84 -33.5t77 -103.5t58.5 -192.5t14.5 -221.5 q0 -102 -7.5 -185t-29.5 -159q-16 -14 -52 -85.5t-70 -84t-56.5 -14.5t-50 -11t-27.5 -52zM592 1083q86 -16 106.5 -129.5t20.5 -263.5q0 -127 -10.5 -245.5t-42.5 -188.5q16 78 24 178.5t8 186.5q0 141 -20.5 269t-85.5 193z" />
<glyph unicode="*" d="M-23 -410v2048h1205v-2048h-1205zM274 655q0 -23 21.5 -54.5t42.5 -31.5q14 0 101 69t96 69q25 0 24 -37q0 -18 -19.5 -87t-19.5 -104q0 -20 21.5 -29.5t44.5 -9.5q25 0 45 8.5t20 28.5l-6 105q-2 20 -15.5 52t-13.5 42q0 33 33 33q61 -53 112.5 -97.5t78.5 -44.5 q25 0 45 29t20 55q0 41 -115.5 65.5t-115.5 55.5q0 29 111.5 63.5t111.5 73.5q0 20 -15.5 47t-35.5 27l-15 -6l-180 -135q-35 0 -35 32q0 2 17.5 83t17.5 110q0 20 -20.5 29.5t-40.5 9.5q-23 0 -41.5 -8t-18.5 -29q0 -31 16.5 -94.5t16.5 -93.5q0 -39 -39 -39 q-18 0 -85.5 65.5t-96.5 65.5q-23 0 -36 -22.5t-13 -47.5q0 -39 103.5 -78t103.5 -51q0 -29 -113 -55.5t-113 -63.5zM489 1010q1 -64 48 -107q-23 76 -33 162q-14 -29 -15 -55z" />
<glyph unicode="+" d="M-18 -410v2048h1208v-2048h-1208zM227 629q0 -49 23.5 -68.5t71.5 -19.5l196 -4l2 -23q0 -47 -4 -65.5t-20 -47.5q6 -70 19 -116.5t58 -46.5q49 0 67.5 22.5t18.5 71.5l3 203q35 0 113.5 4t82.5 4q29 0 52.5 10t23.5 35q0 59 -62 69q-53 5 -106 9q10 10 26.5 15t32.5 11 q-33 8 -75 8q-43 0 -86 -6l-7 172q0 29 -10 52.5t-35 23.5q-59 0 -69 -61q-4 -53 -8 -105q-12 10 -18.5 30.5t-8.5 27.5q-10 -41 -10 -76q0 -20 2 -39t4 -37q-33 0 -57.5 4t-53.5 19q-82 -6 -124 -18.5t-42 -57.5z" />
<glyph unicode="," d="M-23 -410v2048h1219v-2048h-1219zM317 -72q0 -27 16.5 -36t35.5 -19q90 41 140 113t50 170q0 53 -29.5 110.5t-78.5 57.5l-21 -5q-27 -18 -41 -38.5t-14 -49.5q0 -25 28.5 -69.5t28.5 -77.5q0 -43 -35 -80q-41 -37 -80 -76zM328 -6q29 14 47 36.5t18 51.5q0 33 -5 43 t-30 39q4 -27 9 -53q0 -35 -7.5 -53.5t-31.5 -63.5z" />
<glyph unicode="-" d="M-25 -410v2048h1213v-2048h-1213zM229 627q0 -27 16.5 -56.5t39.5 -29.5q90 0 179 -2t179 -4l215 6q29 0 52.5 11t23.5 38q0 57 -64 67q-53 5 -104 9q10 10 26.5 15t32.5 11q-33 8 -75 8q-47 0 -137.5 -9t-102.5 -9q-33 0 -60.5 4t-56.5 19q-70 -6 -117 -19.5t-47 -58.5z M362 506q102 -20 220 -21q92 1 170 15q-49 6 -97 6q-47 0 -96 -2t-96 -4q-47 0 -101 6z" />
<glyph unicode="." d="M-25 -410v2048h1215v-2048h-1215zM410 219q0 -27 28.5 -59.5t55.5 -32.5l26 8q33 6 49.5 33t16.5 63l-4 31q-20 29 -38 45.5t-44 16.5l-19 -5q-29 -20 -50 -44.5t-21 -55.5z" />
<glyph unicode="/" d="M-31 -410v2048h1227v-2048h-1227zM297 182q0 -25 18.5 -41t42.5 -16l15 2q74 129 200.5 334t198.5 327.5t133 251.5q-27 23 -57 21q-92 -111 -183.5 -270.5t-183.5 -321.5t-182 -266z" />
<glyph unicode="0" d="M-41 -410v2048h1231v-2048h-1231zM209 815q0 -47 8 -143.5t8 -143.5q0 -18 -7 -65t-7 -72q0 -129 99.5 -177t246.5 -48q92 0 173 29.5t136 95.5q41 180 41 358q0 98 -14 196.5t-45 188.5q-70 49 -158 62.5t-213 13.5q-139 0 -203.5 -77t-64.5 -218zM268 735 q0 131 48.5 205t170.5 74q49 0 115 -13.5t96 -37.5l-80 4q-55 0 -104 -6.5t-102 -22.5q20 -4 60 -6t65 -2q104 0 145 -4t88 -37l4 14q0 12 -11 25.5t-13 15.5l-21 6l33 6q37 -53 50 -122.5t13 -151.5q0 -39 -4 -130t-4 -97q0 -74 -29.5 -113t-103.5 -39q-43 0 -126 15.5 t-118 15.5l-43 -4q0 -39 41 -43t80 -6l-57 -7q-47 0 -85 13.5t-69 44.5q0 72 -19.5 208t-19.5 195z" />
<glyph unicode="1" d="M-33 -410v2048h1221v-2048h-1221zM373 893q27 -27 63 -27q35 0 72 26t70 87q8 -63 10 -121.5t2 -134.5q0 -90 -2 -181l-4 -182l6 -208l51 -11q27 0 35 23q0 102 2 307t2 305v37q0 129 -12 256q-10 4 -38 8t-57 10q-88 -37 -144 -79.5t-56 -114.5zM465 834q4 -2 22.5 0 t20.5 2q4 -8 11 -18.5t13 -10.5t9.5 21.5t3.5 37.5l-2 33q-2 -4 -40 -30.5t-38 -34.5z" />
<glyph unicode="2" d="M-31 -410v2048h1219v-2048h-1219zM238 846q0 -45 30 -76q66 0 71 96.5t44 118.5q111 16 221 33q70 0 111 -31q-57 -12 -125 -17t-144 -5q-25 -18 -24 -58l4 -14q35 20 73 28.5t81 8.5q53 0 86.5 -6t138.5 -29q6 -16 11 -28.5t13 -12.5q10 0 11 41q0 25 -2 47.5t-4 32.5 q41 -43 40 -115q0 -39 -11 -85t-17 -70q-39 -8 -218 -34t-264 -51.5t-99.5 -167t-22.5 -225.5q12 -41 39.5 -54t70.5 -13h49q20 0 39 -2t35 -11q-8 -2 -51 -12t-86 -10q45 -18 100.5 -25.5t126.5 -7.5q31 0 90.5 2t83.5 2q59 0 101.5 6.5t42.5 16.5q-8 8 -24.5 15t-35.5 11 q12 6 30.5 9.5t41.5 3.5h43q16 14 26.5 29.5t10.5 33.5q0 43 -27.5 54.5t-85.5 19.5q-12 20 -66.5 29.5t-125.5 9.5q-31 0 -65 -1t-70 -3l-68 2q-20 16 -26.5 22t-6.5 15l6 14q57 33 254 71t258 115q-96 -47 -226 -67.5t-261 -20.5q-33 0 -44 -22.5t-11 -63.5q0 -16 1 -36.5 t3 -45.5v-8q-8 -20 -25 -18q-10 0 -25.5 7t-29.5 15q2 8 2 25q-2 29 -2 43q0 16 10 41q63 104 307 139t310 143l-3 31q0 37 5.5 96.5t5.5 71.5q0 63 -21.5 112.5t-67.5 69t-143.5 32.5t-156.5 13q-96 0 -171 -27.5t-124 -94.5q-20 -51 -33.5 -88t-13.5 -70z" />
<glyph unicode="3" d="M-27 -410v2048h1221v-2048h-1221zM215 371q0 -78 62.5 -127t142.5 -49q29 0 100.5 -4.5t79.5 -4.5q90 0 165 22t124 79q14 72 19 115.5t5 103.5q0 63 -11 112.5t-42 92.5q20 29 30.5 71.5t10.5 83.5q0 37 -6 80t-8 68q-39 72 -108.5 100.5t-162.5 28.5q-57 0 -146 -9.5 t-130 -22.5t-69.5 -57t-28.5 -89l6 -43l31 -9q29 0 53 55.5t61 55.5l21 -2l4 -21q0 -27 -49.5 -66.5t-57.5 -55.5l29 2q20 41 64.5 55t101.5 14q100 0 172 -18.5t72 -87.5q0 -68 -32 -87.5t-87 -19.5h-35q-47 0 -68.5 -11t-21.5 -52q0 -14 2 -30.5t4 -31.5q0 -14 -2 -20 q14 -45 140 -53.5t126 -87.5q0 -55 -31.5 -93.5t-89.5 -38.5q-29 0 -83 11.5t-74 11.5q-25 0 -55.5 -16.5t-47.5 -16.5q-29 0 -61.5 52.5t-69.5 52.5q-49 0 -49 -43zM436 135q66 -14 146 -14q61 0 109.5 6.5t101.5 24.5zM471 1014q37 14 70 14q6 -8 22 -8q12 0 33 4l14 -6 l-121 -6zM778 594q16 -12 25.5 -39t9.5 -74q0 -60 -16 -121q-6 -4 -10.5 -10t-6.5 -8q20 78 21 143q0 61 -23 109z" />
<glyph unicode="4" d="M-31 -410v2048h1221v-2048h-1221zM229 508q0 -16 6.5 -45t6.5 -43q0 -20 -4 -31q18 -63 78.5 -86.5t146.5 -23.5q27 0 61.5 1t77.5 3q49 0 74 -4q10 -12 24.5 -25.5t22.5 -15.5q12 0 14 54t17 54q25 0 24 -27q0 -10 -6 -28.5t-6 -28.5q0 -55 10 -85t31 -30 q31 0 53.5 12.5t22.5 41.5q0 14 -9.5 51t-9.5 53q0 41 34 53.5t67 24.5q2 6 5 12t3 17q0 18 -41 38.5t-49 30.5q-12 70 -16.5 144.5t-4.5 158.5q0 47 4 158t4 119q-8 23 -26.5 31t-46.5 8q-14 0 -30.5 -3t-41.5 -12q-92 -84 -255 -264t-200 -231t-39 -61.5t-2 -20.5z M344 492q0 12 36 39.5t36 43.5q39 74 108.5 152t141.5 115q-2 -37 -51.5 -102.5t-55.5 -77.5q35 16 100.5 79.5t100.5 81.5q4 -25 6 -55.5t2 -58.5q0 -27 -2 -80.5t-2 -81.5v-37.5t4 -42.5q-16 4 -16 29q4 31 4 43l-8 20q-12 -39 -50.5 -55.5t-87.5 -16.5q-43 0 -89 11.5 t-46 36.5l19 28l-5 23q-14 -20 -23 -27.5t-22 -5.5q-16 -10 -23 -50t-34 -40q-14 0 -28.5 7t-14.5 22zM727 877q10 8 16.5 52t22.5 44l10 -2q-6 -8 -10 -59.5t-16 -51.5z" />
<glyph unicode="5" d="M-27 -410v2048h1215v-2048h-1215zM199 360q0 -31 12 -66.5t25 -68.5q59 -49 138 -72.5t163 -23.5q78 0 147.5 13.5t157.5 39.5q49 49 67.5 111.5t18.5 148.5q0 49 -2 100.5t-4 102.5l6 21q0 29 -38 66.5t-38 47.5q6 12 31 17q-33 27 -74 41q-68 18 -135 39q51 0 106.5 15 t108.5 42q-41 6 -96.5 9t-122.5 3h-27q-68 0 -104.5 3t-87.5 16q37 14 92 20t100 6q33 0 67.5 -1t69.5 -1q33 0 67 2t66 8q27 18 27 48q0 27 -23.5 33.5t-135 11t-158.5 4.5q-61 0 -184.5 -8.5t-184.5 -8.5q-14 -59 -19.5 -113.5t-5.5 -136.5v-119.5t2 -119.5q20 -10 39 -10 q31 0 63 47t52 55l35 -4q25 0 70 8t67 8q45 0 76 -24q-25 -10 -106 -14.5t-113 -30.5q29 -6 34 -6.5t29 2.5q37 0 75 2t77 4q49 0 88 -13.5t71 -48.5q-18 37 -18 78q6 25 12 25q16 0 22.5 -10.5t18.5 -36.5q0 -35 9.5 -102.5t9.5 -78.5q0 -63 -19.5 -103t-72.5 -67l4 33 l-234 -24q-23 0 -50.5 1t-70.5 15q-23 -18 -39 -16q-23 0 -43 73.5t-61 73.5q-12 0 -26.5 -6t-20.5 -8q-12 -27 -10 -52zM334 944q0 16 13 22.5t32 4.5h10q-8 -43 -14 -84t-6 -90l6 20q0 20 -20.5 66.5t-20.5 60.5zM477 88q20 -10 41 -10l21 4q-27 10 -50 10z" />
<glyph unicode="6" d="M-31 -410v2048h1219v-2048h-1219zM227 741q0 -70 12.5 -212t12.5 -164v-33v-27q-4 -18 -4 -26q39 -82 102.5 -116t157.5 -34q76 0 116 3t148.5 14.5t142 96t33.5 199.5q0 98 -27.5 175t-95.5 128l4 9q18 -10 33 -13l8 7q-33 16 -69.5 22t-79.5 6t-110.5 -3t-69.5 -3 q-49 0 -70.5 3t-58.5 15v19q0 45 24.5 69.5t95.5 24.5q23 0 40.5 -1t29.5 -1q33 0 51.5 3t38.5 16q39 0 81 -57.5t75 -57.5l35 6q-20 23 -41 45q8 23 35.5 24t31.5 9l2 24q0 115 -83 155t-207 40q-129 0 -263 -35q-72 -55 -101.5 -140t-29.5 -190zM338 377q8 18 8 49 q0 14 -4 47t-4 47q0 35 14.5 59.5t46.5 24.5q27 0 27 -14q-6 -12 -20 -25l2 -22q66 8 109.5 12t82.5 4q61 0 112.5 -12t90.5 -43q10 18 10 45q-2 23 -2 35q4 -2 13.5 -18.5t15.5 -26.5l4 -93q0 -49 -7.5 -84.5t-31.5 -66.5q12 25 12 29l-10 6q-10 0 -30.5 -16.5t-22.5 -26.5 l-43 4q-39 0 -111 -7.5t-94 -7.5q-68 0 -110 20.5t-58 80.5zM346 831q0 41 9.5 71t33.5 54q18 0 19 -14q0 -10 -9.5 -37t-5.5 -47q-2 -8 -2 -22q0 -18 2 -37t4 -37q0 -33 -24 -33l-21 4zM426 100q129 -16 160.5 -19t79.5 -3q59 0 104 9t90 34q-37 -8 -70.5 -10t-80.5 -2h-69 t-67 2h-18q-31 0 -63.5 -2.5t-65.5 -8.5z" />
<glyph unicode="7" d="M-33 -410v2048h1231v-2048h-1231zM219 1018h83t95 2q104 0 188.5 -4t125.5 -19q18 -4 33.5 -13t15.5 -17q0 -16 -58.5 -25.5t-103.5 -15.5l184 -23q6 35 16.5 57.5t32.5 22.5q14 0 25 -10q-68 -111 -143.5 -243t-146 -254t-156.5 -249q0 -49 7 -63t50 -10 q76 158 202 360.5t242 386.5q10 70 21 139l-2 31q-43 14 -96.5 20.5t-106.5 6.5q-68 0 -219.5 -10.5t-204.5 -10.5q-33 0 -58.5 -8t-25.5 -35v-16z" />
<glyph unicode="8" d="M-35 -410v2048h1225v-2048h-1225zM188 420q0 -127 76 -232q63 -41 92 -58t62 -17q10 0 32.5 8t32.5 8q18 0 30.5 -12.5t2.5 -18.5q31 0 81 -5t58 -5q49 0 72 3t53 20q-31 -6 -62.5 -12.5t-60.5 -6.5q-27 0 -40 3t-23 22q20 8 187 31.5t167 154.5q27 47 27 92 q0 47 -13.5 84t-74.5 154q33 90 50 142.5t17 70.5q0 66 -27.5 128t-87 84.5t-144.5 33t-160 10.5q-96 0 -190.5 -33t-116 -76t-27.5 -95t-6 -75q0 -66 15 -117t52 -100q-74 -72 -74 -186zM274 815q0 113 62.5 141.5t193.5 28.5q57 0 101 -14q-74 -6 -148 -10 q-90 -12 -127 -64v-25q94 14 149.5 22.5t117.5 8.5q55 0 104 -9t88 -32l-2 17q0 12 1 23t7 11q17 -12 33 -41l2 -38q0 -35 -7 -65t-26 -52q-68 0 -205 -2t-206 -2q4 -4 5 -7.5t3 -9.5q0 -12 -25 -12q-27 0 -40 4t-19 6q-18 14 -40 56.5t-22 64.5zM279 432q0 76 55 123h12 q43 0 129 6t129 6q27 0 54.5 -2t54.5 -8q-20 -12 -46 -16t-59 -4q-31 0 -60.5 2t-55.5 4q-53 0 -85 -16.5t-47 -63.5q90 12 155 19t116 7q63 0 107 -7t96 -29l-9 47q2 18 6 18q12 0 22.5 -22.5t18.5 -49.5q-10 -55 -17 -89.5t-38 -59.5q-55 -14 -121 -14q-45 0 -155.5 13 t-149.5 13q12 -12 12 -18t-9 -8t-19 -4q-10 0 -24.5 4t-28.5 10q-43 66 -43 139z" />
<glyph unicode="9" d="M-25 -410v2048h1215v-2048h-1215zM219 264q0 -43 42 -77.5t81 -65.5q45 0 122 -7.5t101 -7.5q98 0 177.5 23t138.5 84q14 106 21 199.5t7 185.5q0 219 -53 393q-53 43 -119.5 60.5t-142.5 17.5q-195 0 -285 -51t-90 -234q0 -121 45 -243q39 -37 94.5 -51.5t120.5 -14.5 h54.5t56.5 2q33 0 57.5 -2t50.5 -10q-31 -14 -74.5 -22.5t-78.5 -8.5q-39 0 -111 7.5t-92 7.5q59 -20 134 -27.5t165 -7.5h98q29 0 29 47q0 29 9 43t40 18v-37.5t2 -40.5q0 -66 -10 -110.5t-45 -79.5l-27 16q-78 -10 -143 -10q-37 0 -106.5 12.5t-94.5 12.5q-14 -2 -14 -6 q10 -14 12 -23l-12 -8q-4 14 -35 23.5t-31 17.5l13 18l24 -8q-12 8 -27.5 17.5t-23.5 9.5q-16 0 -45 -22.5t-35 -39.5zM305 768q0 72 43 128t115 56q16 0 35.5 -6t44 -8t48 -4t34.5 -8q-92 0 -127 -3t-54 -12q-12 2 -25 -12t-20 -20h101q70 0 125 -2.5t112 -10.5l4 15 q0 23 -19.5 26.5t-33.5 7.5l35 5q47 0 69.5 -55.5t22.5 -108.5v-47q0 -31 -9 -48.5t-42 -29.5q-8 2 -10 4t-2 8q-37 -6 -91.5 -8t-62.5 -2q-35 0 -104.5 2t-106.5 2q4 -8 6 -11t4 -5q-43 -2 -67.5 50t-24.5 97z" />
<glyph unicode=":" d="M-31 -410v2048h1219v-2048h-1219zM410 219q0 -27 28.5 -59.5t55.5 -32.5l26 8q33 6 49.5 33t16.5 63l-4 31q-20 29 -38 45.5t-44 16.5l-19 -5q-29 -20 -50 -44.5t-21 -55.5zM410 827q0 -27 28.5 -59.5t55.5 -32.5l26 8q33 6 49.5 33t16.5 64l-4 30q-20 29 -38 45.5 t-44 16.5l-19 -4q-29 -20 -50 -45t-21 -56z" />
<glyph unicode=";" d="M-27 -410v2048h1217v-2048h-1217zM317 -72q0 -27 16.5 -36t35.5 -19q90 41 140 113t50 170q0 53 -29.5 110.5t-78.5 57.5l-21 -5q-27 -18 -41 -38.5t-14 -49.5q0 -25 28.5 -69.5t28.5 -77.5q0 -43 -35 -80q-41 -37 -80 -76zM328 -6q29 14 47 36.5t18 51.5q0 33 -5 43 t-30 39q4 -27 9 -53q0 -35 -7.5 -53.5t-31.5 -63.5zM360 827q0 -27 29 -59.5t55 -32.5l27 8q33 6 49.5 33t16.5 64l-5 30q-20 29 -37.5 45.5t-43.5 16.5l-19 -4q-29 -20 -50.5 -45t-21.5 -56z" />
<glyph unicode="&#x3c;" d="M-27 -410v2048h1217v-2048h-1217zM266 608q0 -39 13 -80q63 -35 274 -138t285 -144q16 2 25 16t9 35q0 18 -12 35q-201 113 -399 227h16q16 0 43 -11t60 -26q-33 0 -76 53.5t-68 53.5q-14 0 -30 -19q-16 -25 -21 -32q-20 10 -20 28l2 19q59 47 183 121.5t152 93.5 q74 37 115 62.5t49 88.5l-26 37q-188 -113 -320.5 -191.5t-243.5 -150.5q-10 -41 -10 -78z" />
<glyph unicode="=" d="M-27 -410v2048h1215v-2048h-1215zM111 813q0 -57 63 -68q51 -4 105 -8q-8 -10 -25.5 -16t-34.5 -10q29 4 67 6t72 2q70 0 237 -11.5t220 -11.5q96 0 172 13.5t76 64.5q0 29 -16 58.5t-41 29.5q-31 0 -104 -4t-79 -4q-115 0 -290 5t-203 5h-58q-70 0 -115.5 -10t-45.5 -41 zM113 449q0 -27 16 -57t39 -30q133 0 267 -2t270 -4q47 0 141 4.5t141 4.5q29 0 52.5 11t23.5 36q0 57 -64 67q-53 4 -104 8q8 10 24.5 15.5t32.5 11.5q-14 4 -46 6t-48 2q-86 0 -242.5 -9t-175.5 -9q-59 0 -95 3t-69 19q-70 -6 -116.5 -19t-46.5 -58zM246 328 q72 -14 148.5 -17.5t201.5 -3.5h70h26q103 1 187 15q-63 8 -146 8q-55 0 -165.5 -6.5t-166.5 -6.5q-39 0 -77.5 2.5t-77.5 8.5z" />
<glyph unicode="&#x3e;" d="M-27 -410v2048h1213v-2048h-1213zM303 969q0 -18 12 -35q23 -14 173.5 -86t226.5 -141h-17q-16 0 -42.5 11t-59.5 25q33 0 76 -53t67 -53q14 0 31 18q16 25 21 33q20 -10 20 -29l-2 -18q-59 -47 -183 -122t-153 -93q-74 -37 -115 -62.5t-49 -89.5l27 -36 q188 113 320 191.5t243 150.5q10 41 10 77q0 39 -12 80q-63 35 -274 138.5t-285 144.5q-16 -2 -25.5 -16.5t-9.5 -34.5z" />
<glyph unicode="?" d="M-25 -410v2048h1211v-2048h-1211zM158 1006q18 -29 43 -29q35 0 47 30.5t12 73.5v35q0 25 6 42.5t27 17.5l35 -9q0 -8 -14.5 -25.5t-14.5 -27.5l2 -14q98 25 201 24q145 0 268 -45q16 8 16 23q0 14 -26.5 35.5t-26.5 27.5q6 4 21.5 5t21.5 1q57 0 69.5 -54t24.5 -105 q-2 -14 -2 -43q0 -31 3 -77t3 -48q0 -51 -35.5 -75t-109.5 -46q-8 6 -14 10t-4 12l12 9q-45 -8 -101.5 -19.5t-89.5 -11.5q-37 0 -59 10l45 -41q-31 -6 -46 -33.5t-15 -62.5q0 -41 19.5 -88t53.5 -47q29 0 33 69.5t41 69.5l25 -4q121 0 213 27.5t105.5 91t19.5 153t6 142.5 q0 68 -24.5 121t-76.5 114q-166 78 -348 78q-61 0 -148 -11.5t-130 -31.5t-65.5 -80.5t-22.5 -193.5zM440 219q0 -27 29 -59.5t55 -32.5l27 8q33 6 49 33t16 63l-4 31q-20 29 -37.5 45.5t-44.5 16.5l-18 -5q-29 -20 -50.5 -44.5t-21.5 -55.5z" />
<glyph unicode="@" horiz-adv-x="1572" d="M-23 -410v2048h1610v-2048h-1610zM137 760q0 -74 9.5 -208t9.5 -149q0 -16 -2 -48.5t-2 -51.5q0 -76 59 -145.5t168.5 -90t255.5 -49.5q51 0 93 12.5t42 47.5q0 16 -13.5 19t-35.5 3q-18 0 -53 -4t-54 -4q-90 0 -166.5 22.5t-142.5 75.5q0 82 -38 288t-38 292 q0 207 106.5 301t317.5 94q61 0 214 -31.5t198 -60.5l-147 6q-213 0 -410 -39q41 -6 87 -8t103 -2h113q131 0 223 -10t170 -51q2 4 5 8t3 12q0 18 -12 30.5t-37 29.5l-39 8q43 4 64 12q74 -84 97.5 -217t23.5 -301q0 -137 -31 -212t-143 -75q-23 0 -50.5 3t-42.5 5l-16 15 q-25 38 -25 73l13 29q0 47 10 143.5t10 145.5q0 63 -15 119.5t-52 99.5q-115 55 -242 55q-184 0 -248.5 -72.5t-64.5 -256.5l6 -142q-8 -23 19.5 -69.5t29.5 -63.5q27 -45 92.5 -56t124.5 -20h78q57 0 98 5.5t76 21.5q16 -70 69.5 -94.5t141.5 -24.5q139 0 190.5 126 t51.5 290q0 131 -31 289.5t-95.5 230.5t-170 98.5t-236.5 26.5q-238 0 -382 -26.5t-240.5 -130t-96.5 -324.5zM463 569q0 68 25.5 174.5t70.5 106.5l27 -4q0 -6 -10.5 -16.5t-10.5 -22.5l2 -10q68 18 140 18q94 0 192 -29q8 10 8 15q0 10 -18.5 23.5t-20.5 19.5q4 4 18.5 4 h18.5q33 0 42 -39t18 -72l-2 -37q0 -29 4 -95t4 -70q0 -63 -19.5 -104.5t-72.5 -57.5q-14 14 -15 16l6 4q-31 -6 -78 -12t-79 -6q-49 0 -81 5t-71 23l-8 -16q-55 20 -72.5 65.5t-17.5 116.5z" />
<glyph unicode="A" d="M-25 -410v2048h1213v-2048h-1213zM172 154q12 -8 26.5 -13.5t28.5 -5.5q39 0 72 102.5t72 102.5q182 0 374 -33q-29 -12 -76.5 -16t-54.5 -4q-18 0 -58 2t-60 2q-33 0 -56.5 -2t-50.5 -10q68 0 173.5 -5.5t121.5 -5.5l123 6q0 16 -19.5 20.5t-23.5 10.5q12 29 53 29 q35 0 53.5 -87t36.5 -106l25 -8q38 0 65 41q-80 207 -176 490.5t-133 394.5h-14q-12 0 -51 7t-58 7q-33 0 -55 -22q-88 -203 -169 -419t-169 -478zM367 465q72 182 110.5 273t91.5 145q18 47 37 94q37 -76 99.5 -277.5t78.5 -240.5l-16 -2q-6 0 -18.5 19.5t-14.5 21.5 q-35 -6 -71.5 -12.5t-71.5 -6.5q-37 0 -61.5 5t-51.5 24v-12q0 -18 -24.5 -29.5t-46.5 -11.5q-25 0 -41 10zM573 797q45 0 45 26q0 6 -7 23.5t-7 21.5z" />
<glyph unicode="B" d="M-25 -410v2048h1211v-2048h-1211zM184 1022l6 -866q16 -25 43 -34t62 -9h41q29 0 43 -4l2 -11q0 -6 -33 -6q-25 2 -29 2l-24 -4q59 -12 136 -16t147 -4l219 6q33 10 56.5 16t35.5 25q-53 -18 -109 -19q-16 0 -35.5 1t-48.5 16q147 23 215 82t68 206l-6 80q-72 55 -72 144 q0 39 17.5 125t17.5 118q0 119 -94 174.5t-219 55.5q-61 0 -201.5 -15.5t-194.5 -15.5zM264 381q0 47 9.5 90t33.5 76h67t68 2h19q68 0 132 -1t138 -13q-82 -14 -173 -19.5t-206 -5.5q-8 -8 -8 -23l6 -30l199 4q66 0 132.5 -2t131.5 -8q31 -45 31 -93q0 -53 -50 -69.5 t-120 -16.5q-39 0 -119 7.5t-109 7.5q-53 0 -90 -11q4 -8 6.5 -11t4.5 -5q0 -14 -33 -14l-45 4q-12 27 -18.5 63.5t-6.5 67.5zM266 791q0 51 3 87.5t8.5 58t25 26t23.5 12.5h157q96 0 112.5 -2t70.5 -17q-51 -10 -159 -14t-165 -14l2 -31q49 -10 119 -10h63.5t67.5 2 q70 0 116 -7.5t93 -33.5q16 8 16 18q0 8 -9 26.5t-9 27.5q18 -14 27.5 -38t9.5 -53q0 -57 -10.5 -102t-24.5 -45l-8 2l6 25q-49 0 -147.5 -6.5t-145.5 -6.5q-82 0 -148 9l11 -23q0 -14 -20.5 -21.5t-39.5 -7.5l-18 2q-14 29 -20.5 65t-6.5 71zM831 502l13 2q18 0 26 -29 t9 -86q0 -20 -8.5 -39.5t-12.5 -36.5l-2 25q0 18 8 53t8 53q0 37 -41 58z" />
<glyph unicode="C" d="M-25 -410v2048h1211v-2048h-1211zM190 690q0 -78 9.5 -215t25 -216t107.5 -108.5t223 -29.5h63.5t71.5 -4q29 8 148.5 22t162.5 84q10 43 16.5 73t6.5 58q0 53 -31 84l-35 6q-41 0 -45 -76.5t-36 -88.5l-11 22q-51 -23 -102 -31t-113 -8q-109 0 -231 27l12 -6 q2 -8 -6 -15.5t-10 -9.5q-76 25 -105.5 83t-29.5 146q0 37 6 111t6 113v32q-4 25 -4 35q10 20 19 91t91 71l27 -6q0 -6 -26.5 -28.5t-26.5 -39.5q2 -6 5 -10t9 -10q127 45 270 45q45 0 98.5 -6t102.5 -17l2 13q0 12 -14.5 28.5t-14.5 24.5l37 10q20 0 26.5 -20.5t6.5 -38.5 q-2 -35 -2 -45q0 -43 11.5 -70t45.5 -27q27 0 45 29q0 104 -15 175t-66.5 94.5t-134.5 34.5t-148 11q-190 0 -350 -75q-51 -61 -74 -144.5t-23 -177.5z" />
<glyph unicode="D" d="M-25 -410v2048h1211v-2048h-1211zM190 326q0 -41 1.5 -91.5t10.5 -81t54 -30.5h338q117 0 198.5 24.5t145.5 98.5q25 82 37 177t12 187q0 84 -7 175.5t-34.5 157t-130 104t-215.5 38.5q-82 0 -179 -13t-222 -32q14 -98 14 -209q0 -82 -11.5 -267t-11.5 -238zM270 727 q0 74 6.5 126t28.5 116l117 6q121 0 270 -21q-27 -14 -68.5 -19t-107.5 -5h-70.5t-62.5 2q-8 -4 -17.5 -12.5t-9.5 -12.5q0 -12 36 -19t59 -7q31 0 92 4t92 4q57 0 106.5 -11.5t85.5 -41.5q16 4 17 16q-8 27 -10 39l-9 18h2q41 -1 53 -103q12 -104 13 -208q0 -78 -7 -137.5 t-26 -124.5h-8q-23 0 -63.5 -27.5t-75.5 -50.5q-59 -10 -190.5 -13t-192.5 -12q-16 4 -27.5 19.5t-21.5 36.5l4 92q0 59 -7.5 180t-7.5 166z" />
<glyph unicode="E" d="M-31 -410v2048h1217v-2048h-1217zM229 371l7 -197q12 -23 20 -37t29 -14q90 0 179 -2t179 -4l215 6q29 0 51.5 12t22.5 39q0 63 -63.5 71.5t-102.5 14.5q8 10 25.5 16t33.5 11q-39 10 -94 10q-43 0 -88 -2l-90 -4q-57 0 -83 5t-54 19q-12 23 -13 47q0 27 7.5 53.5 t21.5 53.5q164 23 330 47q-18 6 -29.5 9t-21.5 10l12 8q25 6 52.5 14t31.5 29q-43 106 -172 125q-117 10 -232 20q2 18 0 43t-4 47q0 18 5.5 35.5t17.5 30.5q57 8 129 8q31 0 63.5 -1t65.5 -1q45 0 86 4t78 16q-29 12 -29 41q0 20 31 21q10 0 19 -2l18 -4q8 10 18 30.5 t17 32.5q-51 39 -121 54.5t-148 15.5q-72 0 -205 -9.5t-147 -9.5q-18 0 -35.5 -21.5t-23.5 -29.5l2 -166q0 -115 -5.5 -293t-5.5 -202zM326 373q0 23 4 80t4 61q0 16 23.5 23.5t29.5 17.5v-74q0 -43 2 -88l4 -90l-2 -49q-37 10 -51 42t-14 77zM328 705q0 104 7 163.5 t48 96.5l-2 -129q0 -61 5.5 -86t19.5 -58q-14 -10 -27 -10q-12 0 -25.5 6t-25.5 17zM360 88q102 -20 220 -20q92 0 170 14q-49 6 -97 6q-47 0 -96 -2t-96 -4q-47 0 -101 6z" />
<glyph unicode="F" d="M-25 -410v2048h1213v-2048h-1213zM246 188q0 -27 21.5 -40t49.5 -13q12 31 17.5 66t5.5 82q0 18 -1 36.5t-1 36.5q0 70 12 123t53 88q16 0 34 -3t20 -13q0 -2 -23.5 -28.5t-23.5 -43.5l6 -18q27 20 62.5 29.5t76.5 9.5q20 0 43 -1t45 -1q33 0 59.5 4t53.5 18h-35 q-78 0 -139.5 5t-112.5 22q47 10 142.5 12t140.5 8l24 -4q25 0 45.5 14.5t20.5 38.5q0 49 -72 75t-131 26q-12 -6 -39 -6t-73 5t-56 5q-29 0 -46 -7t-24 -32q-10 -6 -20 -4q-10 0 -23.5 9t-19.5 15q8 31 8 66q0 16 -2 50t-2 50q0 31 6 57.5t25 49.5h10q14 0 17 -7t5.5 -68.5 t6.5 -63.5q4 14 6 27.5t4 29.5q33 8 60.5 10t64.5 2q25 0 51.5 -1t54.5 -1q57 0 123 5t94.5 13.5t28.5 16.5q0 12 -40 24.5t-68 16.5q14 8 34 8q43 -6 64 -6q39 0 55 29q-4 31 -7 47t-24.5 25.5t-113.5 16.5t-166 7q-80 0 -203 -5t-141 -5l-37 -41q0 -215 -2 -432t-4 -435z " />
<glyph unicode="G" d="M-23 -410v2048h1207v-2048h-1207zM190 575q0 -117 18.5 -208t65.5 -179q70 -29 153 -44t167 -15q178 0 276.5 43t98.5 195q0 39 -5.5 101t-5.5 73q0 29 3 43q-41 0 -125 6t-127 6q-100 0 -181 -16q-16 -12 -16 -27q0 -16 23.5 -37.5t23.5 -32.5l-27 -12q45 -29 181.5 -44 t146.5 -19q-2 18 -3 38.5t-21 30.5q10 6 13 9t13 10l10 -2q8 -14 10.5 -32t2.5 -44v-25q-4 -23 -8.5 -41t-16.5 -20l-18 14l2 -12q2 -10 -19.5 -23.5t-27.5 -21.5h-17q-45 0 -155.5 -18.5t-153.5 -18.5q-106 0 -180 61q-16 90 -27.5 174t-11.5 156q0 90 18.5 167t63.5 142 q39 20 88 29.5t100 9.5q49 0 82 -5t70 -21q-104 -10 -181 -20.5t-118 -55.5q72 16 147.5 25.5t143.5 9.5q47 0 83.5 -5.5t73.5 -19.5q-2 12 -18.5 25.5t-16.5 23.5l9 15q45 -8 57 -82t43 -74q12 0 31.5 7t27.5 9q4 6 10.5 22.5t12.5 24.5q0 104 -94 166t-205 62 q-74 0 -163 -14.5t-171 -26.5q-18 -8 -41.5 -26.5t-56.5 -53.5q-57 -205 -58 -402zM373 98q129 -35 256 -35q68 0 129 11.5t116 38.5q-68 -10 -164 -18.5t-169 -8.5q-49 0 -88 2t-80 10zM664 639l61 -2q94 0 129.5 3t101.5 13l-71 6q-35 0 -114 -10t-107 -10z" />
<glyph unicode="H" d="M-18 -410v2048h1202v-2048h-1202zM156 1024q12 -84 17 -167t5 -193q0 -82 -8 -242t-8 -240q8 -20 25.5 -35.5t39.5 -15.5q51 35 52 100q0 31 -10.5 90.5t-10.5 90.5v25.5t8 35.5l-2 19q0 33 8.5 54t36.5 29q45 -6 45 -59q0 -20 -12 -33q37 8 85 12.5t95 4.5l230 -6 q55 0 69 -56q8 -90 19 -178q8 25 8 57q0 12 -2 39t-2 39q0 27 3 44.5t11 35.5q33 -86 33 -166q0 -66 -19 -127q8 -43 50 -43q36 0 61 33q-6 53 -8 112.5t-2 133.5t4 249t4 189l-6 191l-33 22h-31q-20 0 -30 -20l6 -62q0 -33 -7.5 -98.5t-7.5 -91.5q0 -20 1 -43t16 -60 q-23 -23 -31 -22q-12 0 -16 32.5t-8 32.5l-9 -6l-43 -26q-41 -20 -95 -25.5t-79 -5.5l-147 4q-49 0 -87 -5t-75 -20q-43 12 -43 54q0 20 9 53t9 45q-8 16 -12 44t-4 50v42t2 44q0 33 -3 46t-15 36q-35 0 -55.5 -8t-30.5 -35zM862 557q10 0 15 -20q-1 -12 -9 -37 q-30 16 -30 36q0 21 24 21z" />
<glyph unicode="I" d="M-29 -410v2048h1213v-2048h-1213zM477 1018q0 -25 22.5 -39t51.5 -21q0 -109 -2 -327.5t-2 -329.5l8 -14q0 -18 -15.5 -33.5t-33.5 -15.5q-16 -16 -17 -41q0 -14 7.5 -30.5t19.5 -27.5q33 -4 57.5 -7t40.5 -3q29 0 55 7.5t42 25.5l4 22q0 23 -37 56.5t-37 56.5l4 117 q0 96 -9 271t-9 196q0 70 23.5 95t51.5 56q-10 27 -33.5 38t-56.5 11h-84q-29 -23 -40 -33t-11 -30z" />
<glyph unicode="J" d="M-23 -410v2048h1207v-2048h-1207zM246 344q0 -37 38 -94t38 -74l-5 -12q59 -39 137 -57.5t156 -18.5q121 0 238 37q-53 0 -102.5 -4t-118.5 -8q-68 0 -122 7t-108 25q23 4 66 4.5t69 2.5h56q154 0 225.5 25.5t114.5 74.5q14 80 19 153.5t5 182.5t-5 280.5t-5 198.5 q-14 10 -31 10h-6q-14 0 -27.5 -6t-27.5 -16l-2 -94q0 -100 4 -214t8 -190v-25q0 -41 -2 -82.5t-8 -82.5l2 -11q0 -10 -11.5 -25.5t-23.5 -17.5q-12 8 -12 33q-20 -55 -87 -69.5t-157 -14.5h-131q-49 0 -69.5 89t-47.5 106q-35 0 -51 -36t-16 -77z" />
<glyph unicode="K" d="M-18 -410v2048h1204v-2048h-1204zM236 229q6 -4 12 -22.5t37 -18.5q51 0 51 54q0 10 -7 53t-7 65q0 53 -5.5 143.5t-5.5 108.5l21 23l26 4q27 0 42.5 -34t42 -60.5t162.5 -136t190 -213.5q-199 172 -396 344v-13q0 -8 -3 -17t-7 -22q0 -14 14 -18q49 -27 101 -51 q158 -135 315 -271q-8 8 -18 19.5t-10 19.5l10 7q12 0 39.5 -9.5t38.5 -9.5q25 0 36 18.5t15 45.5q-70 88 -231.5 224t-227.5 212q113 92 234.5 192.5t230.5 159.5q8 20 8 33q0 27 -20.5 43t-46.5 16l-15 -2q-88 -51 -189.5 -148.5t-191.5 -185.5l-24 -6q-6 0 -9.5 7.5 t-5.5 11.5l43 34q-27 -16 -43 -22t-36 -6l-13 -15q0 -27 31 -30q-10 -18 -23.5 -39t-31.5 -21l-15 2q-25 23 -36 66t-11 90q0 33 2 64.5t4 62.5q0 37 -2 59.5t-12 49.5l-12 4q-16 0 -35 -15q0 -88 6 -221t6 -135q0 -131 -6 -248t-22 -246zM565 643q2 -16 32 -40.5t46 -24.5 l-4 10q0 10 -15.5 32.5t-15.5 32.5q0 18 27 27q20 23 43.5 50.5t23.5 31.5z" />
<glyph unicode="L" d="M-18 -410v2048h1202v-2048h-1202zM313 956l2 -804l29 -31q129 0 260 -2l262 -4l23 -4q27 0 42 27.5t15 56.5q-37 27 -79 36t-97 9q-37 0 -112.5 -6.5t-114.5 -6.5q-35 0 -67 4.5t-58 16.5q0 129 -2 387t-2 387l-33 33q-25 0 -41 -7.5t-27 -29.5v-62zM682 59l12 -2 q10 0 30.5 8.5t31.5 8.5q8 -1 24 -11z" />
<glyph unicode="M" d="M-25 -410v2048h1211v-2048h-1211zM154 164q0 -35 49 -39q35 0 61 22l-2 271q0 45 4 135t4 135q0 23 -6 64t-6 61q0 31 5 48.5t22 35.5q25 -20 38 -53t13 -70q0 -23 -6 -72t-6 -73q0 -45 17 -77t56 -52q4 -10 46 -80t46 -70q0 18 -65.5 170t-69.5 164q39 -43 116 -183.5 t87 -154.5q14 -8 33 -8q20 0 39.5 8t44.5 25q6 45 84 211t78 247q14 27 23 39.5t20 14.5l18 -19q-6 -39 -8 -95t-2 -64q0 -80 5 -206t5 -145q0 -37 -5 -98t-5 -72q0 -12 13 -28.5t13 -18.5l31 -4q45 0 45 31v393v82q0 217 -20 414l-49 6q-88 0 -137.5 -151.5t-96.5 -184.5 l-8 6q0 -10 -49 -57t-49 -84q0 -14 10 -29.5t37 -32.5l-25 -18l-14 2q-14 29 -85 159t-116 215t-92 177l-39 6q-59 0 -94 -43l6 -238q0 -125 -7 -343t-7 -279zM770 440q4 4 16.5 20.5t22.5 18.5l12 -6q0 -47 5 -88t12 -84l12 -43l8 45q4 35 4 77v64v50v38q0 29 -2 57.5 t-8 55.5q-20 -33 -39.5 -86t-42.5 -119z" />
<glyph unicode="N" d="M-27 -410v2048h1213v-2048h-1213zM162 182l26 -45q12 -8 23 -8q8 0 26.5 9t28.5 12l-6 133q0 63 4 213.5t4 158.5q0 78 -4 145.5t-18 137.5q10 27 37 37q27 -10 39 -39t12 -57q0 -23 -5 -60t-5 -43q0 -43 4 -76.5t18 -35.5l19 24q78 -76 153.5 -203t137 -226t100.5 -144 t94 -45q12 0 27.5 3t31.5 11q-88 10 -120.5 22.5t-50 38t-45 78.5t-66.5 113.5t-113 184.5t-106 237q94 -117 232 -349.5t167 -273.5l29 6q12 0 38.5 -4t38.5 -4q43 0 62 37l2 823q0 31 -10.5 54.5t-38.5 23.5l-23 -4q-18 -45 -25.5 -90t-7.5 -103q0 -39 4.5 -135t4.5 -104 q0 -59 -5.5 -102.5t-21.5 -86.5q0 61 -12.5 186.5t-12.5 188.5q0 23 2.5 48.5t2.5 39.5q-6 -35 -16.5 -197.5t-49.5 -238.5q6 -14 54 -77.5t55 -96.5q-8 -12 -14.5 -17.5t-16.5 -7.5q-43 63 -149.5 229.5t-186.5 291.5t-178 270l-80 8q-51 0 -82 -39v-620q0 -39 -4 -117 t-4 -115z" />
<glyph unicode="O" d="M-23 -410v2048h1209v-2048h-1209zM170 721q0 -80 15.5 -217t41 -223t137 -113t279.5 -27q100 0 196.5 29t124 83t39 167.5t11.5 185.5q0 180 -43 352q-55 78 -141.5 110t-194.5 32q-61 0 -121.5 -7.5t-177.5 -23.5q-90 -53 -128 -142t-38 -206zM281 635q0 168 31.5 254 t168.5 86q35 0 82 -6t90 -11q-29 -14 -67 -14q-25 0 -65 5t-46 5q-72 0 -96 -69h12q41 0 123 6t123 6q51 0 85 -5t77 -20q33 -61 48 -133.5t15 -148.5q0 -121 -35 -242q-47 -39 -97 -54t-122 -15q-49 0 -100 2l-102 4q-72 53 -98.5 144t-26.5 206zM801 950q70 -12 90 -118.5 t20 -229.5q0 -76 -11 -141.5t-40 -126.5q29 137 29 266q0 109 -18.5 191.5t-69.5 158.5z" />
<glyph unicode="P" d="M-25 -410v2048h1217v-2048h-1217zM240 154q8 -16 24.5 -26.5t38.5 -16.5q25 23 34 55.5t9 75.5q0 31 -2 62.5t-4 62.5q0 47 12.5 76.5t50.5 43.5q35 -6 35 -22q0 -10 -14 -32.5t-14 -37.5q0 -18 14 -22q57 31 208.5 37t205.5 34q-23 6 -47 7q-12 0 -39 -2.5t-41 -2.5 q-18 0 -39 4.5t-39 22.5q18 6 41.5 10t66.5 4h39q16 0 41 4.5t75 54.5t54 75.5t4 41v23.5q0 27 -1 47.5t-1 34.5q0 119 -21.5 174t-64.5 92q-68 25 -140.5 36t-156.5 11q-166 0 -323 -43q0 -221 -2 -442zM346 686v31q0 41 8 125t8 125q31 -4 38.5 -40t13.5 -69q45 8 94 16.5 t119 8.5q72 0 135 -15q18 -16 23.5 -39.5t5.5 -64.5v-52.5t2 -35.5q-33 -29 -73 -40t-85 -11q-18 0 -57 2t-62 2q-27 0 -72 -14.5t-61 -14.5t-26.5 19.5t-10.5 66.5zM500 942q31 8 53 14t41 7q21 -1 37 -9q-2 -8 -33 -10t-72 -2h-26zM819 915q14 -49 21.5 -84.5t7.5 -74.5 q0 -23 -4 -33v27q0 68 -5 99.5t-20 65.5z" />
<glyph unicode="Q" d="M-31 -410v2048h1225v-2048h-1225zM141 567q0 -141 38 -250.5t140 -173.5q41 0 141.5 -4t108.5 -4q102 0 181 18.5t145 73.5q6 -4 18.5 -13t12.5 -17q0 -4 -36 -18.5t-36 -47.5q25 -10 47 -8q18 0 59 36t76 36q16 20 17 36q0 23 -49.5 61t-59.5 52q25 162 25 283 q0 240 -73 354.5t-298 114.5q-104 0 -158.5 -3t-106.5 -16.5t-108.5 -64.5t-64.5 -97.5t-13.5 -156t-5.5 -191.5zM254 569v70q0 86 7 149.5t26 135.5q109 29 152.5 38t113.5 9q49 0 84 -8q-14 -8 -29.5 -10.5t-40.5 -2.5q-16 0 -47 2t-43 2q-53 0 -89 -14t-54 -59l39 -2 q45 0 123.5 7t101.5 7q49 0 86 -7t78 -26q39 -96 39 -207q0 -43 -7.5 -79.5t-25.5 -69.5q-25 6 -81 47t-95 41q-16 0 -26.5 -4t-24.5 -15q-12 -29 -19.5 -50t-7.5 -40q0 -53 53.5 -98t53.5 -63q0 -14 -17.5 -19.5t-48.5 -5.5h-33q-18 0 -71.5 -7t-79.5 -7q-74 0 -95.5 79.5 t-21.5 206.5zM414 86q29 -10 54.5 -12t66.5 -2q35 0 72.5 3t84.5 11q-41 0 -107.5 5t-78.5 5q-53 0 -92 -10zM586 449q14 0 27.5 -5.5t27.5 -9.5l22.5 -22.5t18.5 -24.5q-14 6 -54 29.5t-42 32.5zM756 303q0 20 18 21q4 0 17.5 -7.5t13.5 -15.5q0 -14 -33 -14l-14 4z M801 915q16 -14 28.5 -52t16.5 -46q12 -90 12 -180l-2 -59q-29 168 -55 337z" />
<glyph unicode="R" d="M-27 -410v2048h1215v-2048h-1215zM172 172q4 -14 24.5 -34.5t22.5 -24.5q74 23 74 96q0 27 -11.5 94.5t-11.5 87.5q0 37 11 64q0 14 16 32.5t33 18.5q14 0 37.5 -7t23.5 -20q0 -6 -23.5 -29.5t-23.5 -41.5q0 -8 10 -29q37 18 87.5 27.5t99.5 9.5l166 -4q70 0 79 -96.5 t23 -106.5l10 127q0 51 -10 87t-43 60q47 -14 65.5 -50t18.5 -83q0 -29 -2 -58.5t-4 -58.5q0 -33 7 -59.5t26 -48.5l12 -2q14 0 27.5 6t27.5 14q0 33 2 100.5t2 100.5q0 68 -13 126t-48 108q37 29 52 67.5t15 89.5q0 193 -84 272.5t-278 79.5q-61 0 -186 -8t-191 -8l-37 -41 v-53q0 -86 4 -282.5t4 -209.5q0 -168 -14 -313zM281 651q12 150 24 301l14 2q18 0 19 -20q-4 -29 -4 -39q0 -20 14 -33l25 -2q49 0 138 9.5t97 9.5q59 0 99 -12.5t75 -47.5q0 -14 2 -44t2 -44q0 -53 -22.5 -73.5t-79.5 -20.5q-41 0 -126 12.5t-99 12.5q-84 0 -140 -48 q-25 10 -38 37zM772 948h3q33 0 45 -41q14 -43 14 -63q0 -18 6 -57t6 -60q0 -61 -47 -86q14 25 20 57.5t6 65.5q0 31 -9 81t-21.5 67.5t-22.5 35.5z" />
<glyph unicode="S" d="M-23 -410v2048h1217v-2048h-1217zM176 336q0 -104 99.5 -158.5t213.5 -54.5q80 0 196 17.5t174.5 39t87 92t28.5 134.5q0 119 -31.5 167.5t-140.5 114.5l53 4q25 0 39 -8q-94 20 -186.5 28.5t-194.5 8.5l-76 -2q-25 -18 -55 -19q-55 0 -77.5 39t-22.5 101q0 45 21.5 83 t62.5 38l8 -9q0 -16 -14.5 -53t-14.5 -57l2 -13q53 29 122 44.5t134 15.5q133 0 223 -53l2 10q0 23 -17 58.5t-19 45.5q51 0 67.5 -71.5t46.5 -71.5q12 0 31.5 10t26.5 10q10 27 10 47q0 47 -22.5 80t-80.5 93q-152 47 -303 47q-209 0 -300 -59.5t-91 -258.5q0 -31 31 -88 t31 -72l-11 -8l-26 6q43 -78 118.5 -100t190.5 -22h70q129 0 180 -27t51 -84l-2 -21q-39 -41 -96.5 -57t-126.5 -16q-49 0 -126 5t-89 5l24 -14q-25 -12 -41 -13q-29 0 -55.5 70t-69.5 70l-26 -4q-29 -29 -29 -70zM373 90q37 -12 84 -18t86 -6q61 0 132.5 8t100.5 10 l-121 -6q-47 0 -141 6t-141 6zM373 561l76 2q63 0 119.5 -4t107.5 -16h-64q-86 0 -132 3t-107 15zM842 506h1q7 0 17 -18q10 -20 10 -31q0 -12 -6 -35t-4 -33q2 2 4 14q0 18 -11 54.5t-11 48.5z" />
<glyph unicode="T" d="M-25 -410v2048h1211v-2048h-1211zM180 1014l2 -19q30 -34 70 -34h2q12 0 55 7t66 7q12 0 23.5 -1t11.5 -7q0 -16 -60.5 -28.5t-103.5 -12.5q-18 0 -23 2q27 -12 120 -16.5t132 -43.5q0 -53 4 -71l4 -4l9 38q10 68 10 121l-2 27q4 -2 13 -2h13q16 0 21 -12 q0 -90 -2 -272.5t-2 -274.5l-6 -228q6 -18 11 -29t19 -16h33q29 0 37 21q0 129 -2 389t-2 391l22 23l64 -4q59 0 124 11t128 23v27q0 27 -10 35q-70 16 -148 22.5t-164 6.5q-72 0 -239.5 -4.5t-178.5 -4.5q-23 0 -37 -22.5t-14 -44.5zM700 907v-8q0 -33 29 -33q27 0 89 30 q51 25 86 25q7 0 14 -1q-66 20 -125 20q-49 0 -93 -14v-19z" />
<glyph unicode="U" d="M-25 -410v2048h1213v-2048h-1213zM186 406q0 -102 38 -159t136 -93q53 0 143.5 -5.5t106.5 -5.5q123 0 213 28t142 110q10 80 12 146.5t2 172.5q0 72 -2 215t-2 215q-8 16 -17.5 31.5t-29.5 15.5q-10 0 -23.5 -8t-21.5 -18v-113v-576q0 -25 -17.5 -44t-42.5 -19 q12 55 17.5 119.5t5.5 138.5q0 45 -4 148.5t-4 109.5l6 -78q0 -63 -9.5 -181t-9.5 -132q0 -43 2 -66q-6 -18 -24.5 -36.5l-26.5 -26.5q-106 -41 -219 -41q-78 0 -144.5 19.5t-125.5 62.5q0 78 -4 260t-4 192q0 47 -4.5 161t-4.5 120q-20 8 -34 8q-35 0 -50 -33v-460v-178z M381 98q91 -28 203 -28h8q75 0 153 12l-26 -2q-49 0 -150.5 12t-115.5 12z" />
<glyph unicode="V" d="M-23 -410v2048h1211v-2048h-1211zM195 1032q55 -147 110 -294.5t104.5 -277.5t122.5 -310q39 -16 78 -17q43 0 80 25q37 100 89 267t98.5 313.5t97.5 289.5q0 18 -14.5 34.5t-36.5 16.5q-23 0 -35 -16q-115 -311 -227 -623v25q0 31 17 88t19 68q0 -47 -53 -117t-53 -96 q0 -27 13 -45.5t38 -38.5q-4 -16 -10 -25.5t-21 -9.5h-16q-49 98 -122 288.5t-84 219t-48 143.5t-113 131z" />
<glyph unicode="W" d="M-25 -410v2048h1217v-2048h-1217zM147 1090q31 -174 90.5 -425t112.5 -475h17q76 0 105.5 128t52 153t31.5 87.5t52 76.5q12 -20 20.5 -36.5t8.5 -33.5q0 -18 -19.5 -42.5t-37 -70.5t-27.5 -106q14 29 24.5 43t24.5 14q18 0 56 -93t55 -103l2 12q0 43 -31 127t-31 131v17 q41 -78 72 -153t51 -155l29 -6q23 0 43 11.5t24 29.5q14 41 63.5 422t49.5 440q0 25 -15.5 34t-29.5 9t-31 -12q-14 -51 -29.5 -153.5t-22.5 -133t-15 -174t-47 -194.5q-35 74 -77 172t-79 190l-47 13q-59 0 -92 -97.5t-54 -115.5q10 63 16 86.5t17 52.5q-6 -4 -27.5 -39 t-37.5 -47v-33q0 -53 14 -53q6 4 11 6t12 4q-16 -18 -17 -47q0 -8 2 -26.5t2 -28.5q0 -45 -45 -45q-41 121 -73.5 282.5t-50 248.5t-34 112.5t-36.5 25.5h-15zM762 672q0 -35 31 -60q12 45 19 104.5t13 114.5q0 -31 -31.5 -86t-31.5 -73z" />
<glyph unicode="X" d="M-25 -410v2048h1207v-2048h-1207zM209 199q18 -27 31.5 -37t40.5 -15q143 190 286 381l13 7q12 0 30.5 -18.5t20.5 -31.5q0 -10 -11.5 -13t-27.5 -3q-2 -14 -17.5 -38.5t-17.5 -35.5l10 -2l27 8q39 -35 116.5 -125t110.5 -120q-92 152 -182 303q66 -55 117 -123t104 -162 q18 -8 49 -8q27 0 35 18q-23 109 -150.5 273t-148.5 202q72 78 149.5 179.5t131.5 175.5q10 6 14 16t4 23q0 20 -10 45q-66 0 -131.5 -82t-120.5 -154q-12 -12 -41 -73.5t-61 -71.5q-127 213 -312 387q-25 -10 -39 -22.5t-14 -37.5l4 -26q150 -178 301 -356 q-156 -231 -311 -463zM250 932q18 -37 101 -152.5t83 -195.5q16 25 33 51l-6 18q-61 72 -109.5 134.5t-101.5 144.5z" />
<glyph unicode="Y" d="M-25 -410v2048h1211v-2048h-1211zM199 1014l2 -15q61 -98 163.5 -300.5t157.5 -297.5l-2 -16q0 -23 -4 -70t-4 -73q0 -55 23 -95q14 -10 30 -10q14 0 26.5 7.5t26.5 23.5q-12 53 -12 104q0 125 72 271q72 125 152.5 263t103.5 249l-35 24l-12 -4q-55 -55 -105.5 -151.5 t-75 -141.5t-50 -86t-40.5 -41l-12 7l21 36q-14 -23 -28.5 -38t-31.5 -19q4 -10 19.5 -12t19.5 -4q-4 -27 -6 -52q-8 -31 -35 -30q-84 145 -152.5 276t-119.5 252l-47 6q-18 0 -31.5 -21.5t-13.5 -41.5zM385 535q20 -39 40.5 -83.5t45.5 -99.5v17v7q0 37 -39 89 q-43 57 -47 70z" />
<glyph unicode="Z" d="M-27 -410v2048h1215v-2048h-1215zM217 1038q0 -33 35 -51q61 12 125 12q49 0 93 -6t89 -22l-129 -21l-31 -10l19 -4l57 -8q100 -8 149.5 -27.5t49.5 -54.5l-2 -19q-145 -176 -296 -361t-151 -226q0 -25 4 -43.5t7 -30.5q80 0 266 -11.5t243 -11.5h27h23h79q55 6 82 9 q4 25 2 36q0 61 -107.5 70.5t-117.5 15.5q6 10 25 11q14 -2 20 -2q-27 4 -109.5 13t-98 10t-25.5 6t-10 26q0 14 6 29.5t16 29.5q-41 -12 -60 -79.5t-61 -67.5q-25 0 -48 9t-23 30l2 14q86 82 193.5 216t203.5 248t148.5 172t52.5 83t-14.5 46.5t-57.5 27.5t-247 11t-327 5 l-43 -2q-29 -18 -44 -29.5t-15 -42.5zM741 954q0 23 33 36.5t41 21.5v-11q0 -27 -16.5 -43t-48.5 -34q-8 16 -9 30z" />
<glyph unicode="[" d="M-27 -410v2048h1213v-2048h-1213zM426 1075l6 -12q0 -55 -2 -168t-2 -170v-201l2 -325l6 -19q-8 -29 -8 -45q0 -39 11.5 -73.5t39.5 -24.5q33 -4 57.5 -7t38.5 -3q35 0 69 12t34 41q0 23 -78 41t-78 74l6 159q0 129 -9 366.5t-9 268.5q0 96 76 111.5t80 34.5 q-10 27 -34 38t-57 11h-53q-20 0 -33 2q-27 -20 -37 -31.5t-10 -34.5q-2 -12 -6 -23.5t-10 -21.5z" />
<glyph unicode="\" d="M-33 -410v2048h1223v-2048h-1223zM307 1040q70 -147 126 -242.5t199.5 -326.5t207.5 -344h14q25 0 43 16.5t18 38.5l-2 19q-96 113 -187 270.5t-182 319t-184 270.5q-31 2 -53 -21z" />
<glyph unicode="]" d="M-39 -410v2048h1239v-2048h-1239zM375 82q0 -29 32.5 -43t65.5 -14t57.5 4t40.5 6l11 -2q25 0 34 39.5t9 72.5q-8 20 -9 31q0 14 7 23v108v94v82v72v63v56v49v43v37v33v28v25q0 37 -1 73.5t-1 75.5v23l5 10t3 4q0 4 -7.5 19.5t-7.5 25.5q-2 25 -11 33t-40 29 q-14 0 -42.5 2t-43.5 2q-35 0 -57.5 -10.5t-32.5 -38.5q6 -25 81 -35t75 -115q0 -129 -9.5 -366.5t-9.5 -264.5q0 -29 4 -97.5t4 -74.5q0 -43 -78.5 -62.5t-78.5 -39.5z" />
<glyph unicode="s" d="M-16 -410v2048h1202v-2048h-1202z" />
<glyph unicode="{" d="M-16 -410v2048h1198v-2048h-1198zM213 623q0 -25 57.5 -82.5t66.5 -132t23 -199.5q29 -106 169.5 -196.5t258.5 -90.5q31 0 44.5 17.5t13.5 52.5q-14 14 -133 60t-163 78t-61.5 106.5t-28.5 160.5t-72.5 142.5t-61.5 78.5q0 20 61.5 57.5t61.5 55.5q6 61 12 123 q20 109 118.5 174.5t219.5 79.5q14 18 14 37q0 35 -25.5 50t-62.5 15q-51 0 -102.5 -20.5t-130 -65.5t-109.5 -131t-45 -175t-69.5 -132t-55.5 -63z" />
<glyph unicode="|" d="M-31 -410v2048h1223v-2048h-1223zM483 1079l6 -14q0 -98 -2 -297t-2 -301l2 -264l7 -19q-8 -29 -9 -45q0 -39 9.5 -70.5t35.5 -31.5h11q31 -6 40 13.5t9 53.5q0 20 -5 53t-5 40q0 39 2 80.5t4 84.5q0 137 -9.5 386t-9.5 278q0 18 6.5 57t6.5 60q0 47 -33 47 q-27 -20 -37 -31.5t-10 -34.5q-2 -12 -6.5 -23t-10.5 -22z" />
<glyph unicode="}" d="M-18 -410v2048h1200v-2048h-1200zM377 25q0 -20 13 -39t34 -19q106 0 195 65t159 165q10 61 17.5 125.5t15.5 127t54 105.5t46 119q0 31 -46 81t-59 137t-21.5 118.5t-40 82t-126 114t-159.5 63.5q-33 0 -53.5 -13.5t-20.5 -44.5q0 -20 14.5 -30.5t60.5 -17.5t76.5 -47 t59.5 -88t40 -93t21 -113q33 -76 66 -151q0 -51 -29.5 -123t-32 -94.5t-6.5 -70.5t-22 -110q-18 -16 -53 -85.5t-68 -83t-57.5 -17.5t-51 -11t-26.5 -52zM592 1085q72 -12 88 -66t26.5 -129t58.5 -133t48 -87q0 -47 -34 -101.5t-70 -111.5q-6 -49 -14.5 -102.5t-28.5 -94.5 q10 43 15 87t11 112q0 29 38 94t38 119q0 29 -39 78t-51 116.5t-27.5 121.5t-58.5 97z" />
<glyph unicode="&#xa0;" />
<glyph unicode="&#xa9;" horiz-adv-x="1572" d="M-33 -410v2048h1632v-2048h-1632zM137 760q0 -74 9.5 -208t9.5 -149q0 -16 -2 -48.5t-2 -49.5q0 -170 211.5 -233.5t435.5 -63.5q162 0 301 37t241 125q35 113 55.5 232.5t20.5 234.5q0 266 -112 498q-127 68 -280 84t-378 16q-244 0 -377 -119t-133 -356zM233 752 q0 207 108 301t321 94q88 0 220 -20.5t183 -53.5l-147 6q-213 0 -410 -39q41 -6 87 -8t103 -2h113q131 0 223 -10t170 -51q2 4 5 8t3 12q0 18 -12 30.5t-37 29.5l-39 8l64 8q63 -72 89 -164t26 -207l-7 -344q0 -115 -72.5 -166t-191.5 -51q-72 0 -234.5 21.5t-232.5 21.5 l-82 -4q0 -55 82 -61.5t154 -10.5q-37 -6 -55.5 -8t-55.5 -2q-90 0 -161.5 17.5t-137.5 64.5q0 82 -38 288t-38 292zM479 674q0 -104 3 -163.5t16.5 -125.5t80 -89.5t158.5 -23.5h45.5t44.5 2q16 4 102 13.5t115 60.5q2 10 8.5 42t6.5 48q0 37 -21 60l-24 4q-29 0 -31 -53.5 t-25 -61.5l-8 19q-33 -16 -71.5 -22.5t-81.5 -6.5q-76 0 -158 16l8 -4q2 -6 -14 -16q-51 16 -71.5 59t-20.5 103q0 27 4 89t4 68q0 31 -2 45q0 2 13 56.5t52 54.5h20.5t10.5 -6q0 -4 -19.5 -19.5t-19.5 -25.5l8 -13q49 16 94.5 24.5t98.5 8.5q72 0 139 -18l2 8q0 8 -10 20.5 t-10 18.5l24 6q23 0 23 -45v-29q0 -35 10 -50t29 -15q20 0 32 18q0 145 -50 184t-206 39q-127 0 -245 -53q-35 -45 -49.5 -100.5t-14.5 -126.5z" />
<glyph unicode="&#xad;" d="M-25 -410v2048h1213v-2048h-1213zM229 627q0 -27 16.5 -56.5t39.5 -29.5q90 0 179 -2t179 -4l215 6q29 0 52.5 11t23.5 38q0 57 -64 67q-53 5 -104 9q10 10 26.5 15t32.5 11q-33 8 -75 8q-47 0 -137.5 -9t-102.5 -9q-33 0 -60.5 4t-56.5 19q-70 -6 -117 -19.5t-47 -58.5z M362 506q102 -20 220 -21q92 1 170 15q-49 6 -97 6q-47 0 -96 -2t-96 -4q-47 0 -101 6z" />
<glyph unicode="&#xae;" horiz-adv-x="1572" d="M-31 -410v2048h1635v-2048h-1635zM137 760q0 -74 9.5 -208t9.5 -149l-6 -100q0 -168 211.5 -231.5t437.5 -63.5q162 0 301 37t241 125q35 113 55.5 232.5t20.5 234.5q0 266 -110 498q-129 68 -282 84t-378 16q-242 0 -376 -118t-134 -357zM233 752q0 207 109 301t320 94 q100 0 223 -18.5t180 -55.5l-147 6q-213 0 -408 -39q45 -6 112.5 -8t75.5 -2h113q145 0 226 -9t167 -52l8 20q0 18 -10 28.5t-39 31.5l-39 8l64 12q66 -74 90.5 -167t24.5 -208l-7 -344q0 -115 -72.5 -166t-191.5 -51q-70 0 -232.5 21.5t-234.5 21.5l-80 -6q0 -55 82 -61.5 t152 -8.5q-53 -8 -75.5 -9t-37.5 -1q-86 0 -159.5 17.5t-137.5 62.5q0 94 -38 301t-38 281zM510 301q2 -6 37 -41q47 14 47 70q0 16 -7 59t-7 66q0 29 8 47q0 33 33 33q10 0 26.5 -5.5t16.5 -11.5t-16.5 -20.5t-16.5 -28.5l8 -20q25 14 62.5 20t68.5 6l104 -6 q63 0 68.5 -65.5t15.5 -71.5l5 86q0 33 -7.5 59.5t-29.5 44.5q37 -12 48 -34.5t11 -59.5q0 -14 -2 -42t-2 -40q0 -20 4 -40.5t19 -35.5l8 -2q10 0 21.5 6.5t17.5 8.5v67.5t2 71.5q0 49 -9.5 90t-31.5 74q25 18 35 48t10 64q0 135 -57.5 190.5t-194.5 55.5q-66 0 -165 -6 t-101 -6l-23 -31q0 -94 3 -237.5t3 -145.5v-26q0 -94 -12 -191zM590 635q8 104 16 211h10q14 0 15 -17q-4 -16 -4 -22l10 -25l31 -2q20 0 71.5 7.5t77.5 7.5q41 0 69.5 -9t53.5 -34l2 -60q0 -68 -70 -67q-33 0 -92 9t-67 9q-27 0 -51.5 -8t-45.5 -27q-20 6 -26 27zM930 844 q39 -29 45 -75t6 -81q0 -43 -29 -59q10 18 12.5 35.5t2.5 46.5q0 27 -17.5 70.5t-19.5 62.5z" />
<glyph unicode="&#xb0;" d="M-33 -410v2048h1229v-2048h-1229zM444 1155q0 -39 40 -83t79 -44q20 0 49 16q111 18 111 136l-4 43q-29 41 -58.5 67.5t-66.5 26.5q-45 0 -97.5 -56.5t-52.5 -105.5zM510 1180q8 35 23.5 47t35.5 12q18 0 37.5 -8.5t42.5 -22.5h-10q-10 0 -37 4.5t-29 4.5q-41 0 -63 -37z M526 1141q0 27 15.5 45t42.5 18q25 0 43 -18.5t18 -42.5q0 -25 -18 -41.5t-43 -16.5q-23 0 -40.5 15.5t-17.5 40.5z" />
<glyph unicode="&#xb6;" d="M-27 -410v2048h1223v-2048h-1223zM131 770q0 -113 20.5 -188.5t71.5 -85t109.5 -9.5t93.5 -14q-12 -14 -34.5 -20.5t-45.5 -6.5q-12 0 -38.5 2.5t-37.5 2.5l-47 -7q51 -29 160 -37t160 -36q14 10 14 22t-14.5 37t-14.5 35q0 16 37 22q37 -14 50.5 -77.5t13.5 -157.5 q0 -49 -3 -104.5t-5 -116.5q0 -72 6 -119t37 -76q20 6 38.5 16.5t24.5 26.5v113v98v86v76v67v58v51v45v39v35v28v27q0 39 -1 79t-1 81v22q0 41 -2 125t-2 127q-68 18 -137.5 31.5t-126.5 13.5q-61 0 -117.5 -11t-118.5 -36q-51 -43 -70.5 -110.5t-19.5 -153.5zM272 674 q2 12 2 41v51q0 37 5.5 59.5t23.5 40.5q29 6 53.5 10.5t51.5 4.5q41 0 82.5 -9.5t66.5 -13.5q6 43 12 73t39 34q0 -43 8.5 -125t8.5 -123v-31q0 -37 -7 -62.5t-30 -25.5q-16 0 -55 15.5t-60 15.5l-80 -6q-33 0 -62.5 13t-58.5 38zM338 950q25 14 47 15q18 0 49 -13.5 t35 -13.5q-41 2 -84 3t-47 9zM793 -94q10 -45 55 -45q25 0 45 16q0 109 2 325t2 322q0 86 -8 260t-8 263l-23 2q-14 0 -35 -9q-23 -129 -22 -286q0 -111 9 -310.5t9 -220.5q0 -106 -5 -167.5t-21 -149.5zM918 918q0 -111 6 -334.5t6 -337.5l-6 -328q0 -4 6 -6t14 -4l19 12 v219v123v23q0 244 -8.5 363.5t-28.5 271.5z" />
<glyph unicode="&#xb7;" d="M-33 -410v2048h1225v-2048h-1225zM410 606q0 -27 28.5 -59.5t55.5 -32.5l26 8q33 6 49.5 33t16.5 63l-4 31q-20 29 -38 45.5t-44 16.5l-19 -4q-29 -20 -50 -45t-21 -56z" />
<glyph unicode="&#xfd;" horiz-adv-x="0" />
<glyph unicode="&#x2000;" horiz-adv-x="819" />
<glyph unicode="&#x2001;" horiz-adv-x="1638" />
<glyph unicode="&#x2002;" horiz-adv-x="819" />
<glyph unicode="&#x2003;" horiz-adv-x="1638" />
<glyph unicode="&#x2004;" horiz-adv-x="546" />
<glyph unicode="&#x2005;" horiz-adv-x="409" />
<glyph unicode="&#x2006;" horiz-adv-x="273" />
<glyph unicode="&#x2007;" horiz-adv-x="273" />
<glyph unicode="&#x2008;" horiz-adv-x="204" />
<glyph unicode="&#x2009;" horiz-adv-x="327" />
<glyph unicode="&#x200a;" horiz-adv-x="91" />
<glyph unicode="&#x2010;" d="M-25 -410v2048h1213v-2048h-1213zM229 627q0 -27 16.5 -56.5t39.5 -29.5q90 0 179 -2t179 -4l215 6q29 0 52.5 11t23.5 38q0 57 -64 67q-53 5 -104 9q10 10 26.5 15t32.5 11q-33 8 -75 8q-47 0 -137.5 -9t-102.5 -9q-33 0 -60.5 4t-56.5 19q-70 -6 -117 -19.5t-47 -58.5z M362 506q102 -20 220 -21q92 1 170 15q-49 6 -97 6q-47 0 -96 -2t-96 -4q-47 0 -101 6z" />
<glyph unicode="&#x2011;" d="M-25 -410v2048h1213v-2048h-1213zM229 627q0 -27 16.5 -56.5t39.5 -29.5q90 0 179 -2t179 -4l215 6q29 0 52.5 11t23.5 38q0 57 -64 67q-53 5 -104 9q10 10 26.5 15t32.5 11q-33 8 -75 8q-47 0 -137.5 -9t-102.5 -9q-33 0 -60.5 4t-56.5 19q-70 -6 -117 -19.5t-47 -58.5z M362 506q102 -20 220 -21q92 1 170 15q-49 6 -97 6q-47 0 -96 -2t-96 -4q-47 0 -101 6z" />
<glyph unicode="&#x2012;" d="M-25 -410v2048h1213v-2048h-1213zM229 627q0 -27 16.5 -56.5t39.5 -29.5q90 0 179 -2t179 -4l215 6q29 0 52.5 11t23.5 38q0 57 -64 67q-53 5 -104 9q10 10 26.5 15t32.5 11q-33 8 -75 8q-47 0 -137.5 -9t-102.5 -9q-33 0 -60.5 4t-56.5 19q-70 -6 -117 -19.5t-47 -58.5z M362 506q102 -20 220 -21q92 1 170 15q-49 6 -97 6q-47 0 -96 -2t-96 -4q-47 0 -101 6z" />
<glyph unicode="&#x2013;" horiz-adv-x="976" d="M-25 -410v2048h1024v-2048h-1024zM189 627q0 -27 14 -56.5t34 -29.5q76 0 151 -2t151 -4l181 6q25 0 45 11t20 38q0 57 -54 67q-45 5 -88 9q8 10 22 15t28 11q-28 8 -64 8q-39 0 -115.5 -9t-86.5 -9q-28 0 -51.5 4t-47.5 19q-59 -6 -99 -19.5t-40 -58.5zM302 506 q86 -20 185 -21q78 1 144 15q-41 6 -82 6q-40 0 -81 -2t-81 -4q-40 0 -85 6z" />
<glyph unicode="&#x2014;" horiz-adv-x="2000" d="M-25 -410v2048h2048v-2048h-2048zM404 627q0 -27 28 -56.5t66 -29.5q152 0 302.5 -2t302.5 -4l363 6q49 0 88.5 11t39.5 38q0 57 -108 67q-89 5 -175 9q16 10 44 15t55 11q-56 8 -127 8q-79 0 -231.5 -9t-173.5 -9q-55 0 -101.5 4t-95.5 19q-118 -6 -197.5 -19.5 t-79.5 -58.5zM628 506q173 -20 372 -21q155 1 287 15q-83 6 -164 6q-79 0 -162 -2t-162 -4q-79 0 -171 6z" />
<glyph unicode="&#x2018;" d="M-35 -410v2048h1231v-2048h-1231zM422 907q0 -53 29.5 -110.5t78.5 -57.5l21 4q27 18 41 39t14 49q0 25 -28.5 70t-28.5 78q0 51 57.5 98t57.5 58q0 27 -18 36t-34 19q-90 -41 -140 -112.5t-50 -170.5zM588 981q0 -33 5 -43t32 -39q-10 41 -11 53q0 35 7 53.5t32 63.5 q-29 -14 -47 -36.5t-18 -51.5z" />
<glyph unicode="&#x2019;" d="M-39 -410v2048h1235v-2048h-1235zM385 791q0 -31 22.5 -41.5t28.5 -14.5q90 41 140.5 113t50.5 170q0 53 -30 110.5t-79 57.5l-20 -4q-27 -18 -41.5 -39t-14.5 -49q0 -25 29 -70t29 -78q0 -43 -38 -81t-77 -74zM395 856q29 14 47.5 36.5t18.5 51.5q0 33 -5 43t-30 39 q4 -27 8 -53q0 -35 -7 -53.5t-32 -63.5z" />
<glyph unicode="&#x201c;" d="M-27 -410v2048h1221v-2048h-1221zM227 893q0 -53 30 -110.5t79 -57.5l20 4q27 18 41.5 38.5t14.5 49.5q0 25 -29 70t-29 78q0 51 57.5 98t57.5 57q0 27 -17.5 36.5t-33.5 19.5q-90 -41 -140.5 -113t-50.5 -170zM393 967q0 -33 5 -43.5t32 -38.5q-10 41 -10 53 q0 35 7 53.5t32 63.5q-29 -14 -47.5 -37t-18.5 -51zM602 893q0 -53 30 -110.5t79 -57.5l20 4q27 18 41 38.5t14 49.5q0 25 -28.5 70t-28.5 78q0 51 57.5 98t57.5 57q0 27 -17.5 36.5t-33.5 19.5q-90 -41 -140.5 -113t-50.5 -170zM768 967q0 -33 5 -43.5t32 -38.5 q-10 41 -10 53q0 35 7 53.5t32 63.5q-29 -14 -47.5 -37t-18.5 -51z" />
<glyph unicode="&#x201d;" d="M-25 -410v2048h1219v-2048h-1219zM256 782q0 -31 22.5 -41t28.5 -14q90 41 140.5 113t50.5 170q0 53 -30 110.5t-79 57.5l-20 -4q-27 -18 -41.5 -39t-14.5 -50q0 -25 29 -69.5t29 -77.5q0 -43 -38 -81t-77 -75zM264 848q29 14 47.5 36.5t18.5 51.5q0 33 -5 43t-30 39 q4 -27 8 -53q0 -35 -7 -53.5t-32 -63.5zM631 782q0 -31 22.5 -41t28.5 -14q90 41 140 113t50 170q0 53 -29.5 110.5t-78.5 57.5l-21 -4q-27 -18 -41 -39t-14 -50q0 -25 28.5 -69.5t28.5 -77.5q0 -43 -37.5 -81t-76.5 -75zM641 848q29 14 47.5 36.5t18.5 51.5q0 33 -5 43 t-30 39q4 -27 8 -53q0 -35 -7 -53.5t-32 -63.5z" />
<glyph unicode="&#x2022;" d="M-43 -410v2048h1239v-2048h-1239zM285 592q0 -16 4 -42t23.5 -63.5t91 -107.5t126.5 -70q20 0 40 8.5t40 20.5q102 18 150.5 94t48.5 189q0 29 -2 45t-8 53q-53 84 -109.5 134t-132.5 50q-86 0 -179 -109.5t-93 -201.5z" />
<glyph unicode="&#x202f;" horiz-adv-x="327" />
<glyph unicode="&#x205f;" horiz-adv-x="409" />
<glyph unicode="&#xe000;" horiz-adv-x="1024" d="M0 0z" />
</font>
</defs>
</svg>
